<svg width="17" height="17" viewBox="0 0 17 17" fill="none" xmlns="http://www.w3.org/2000/svg">
<g clip-path="url(#clip0_12_1099)">
<path d="M14.8765 3.47649H13.1426V4.77687C13.1426 4.9021 13.118 5.02611 13.07 5.14181C13.0221 5.2575 12.9519 5.36263 12.8633 5.45118C12.7748 5.53973 12.6696 5.60997 12.5539 5.6579C12.4382 5.70582 12.3142 5.73049 12.189 5.73049C12.0638 5.73049 11.9398 5.70582 11.8241 5.6579C11.7084 5.60997 11.6033 5.53973 11.5147 5.45118C11.4262 5.36263 11.3559 5.2575 11.308 5.14181C11.2601 5.02611 11.2354 4.9021 11.2354 4.77687V3.47649H6.18558V4.77687C6.18558 5.02979 6.0851 5.27234 5.90627 5.45118C5.72743 5.63002 5.48487 5.73049 5.23196 5.73049C4.97905 5.73049 4.73649 5.63002 4.55765 5.45118C4.37882 5.27234 4.27835 5.02979 4.27835 4.77687V3.47649H2.5445C2.44135 3.47532 2.33901 3.49484 2.24353 3.53391C2.14805 3.57297 2.06138 3.63079 1.98864 3.70394C1.91589 3.77709 1.85856 3.86408 1.82002 3.95977C1.78148 4.05546 1.76253 4.15791 1.76427 4.26105V13.9619C1.76255 14.0632 1.78081 14.1639 1.818 14.2582C1.85519 14.3525 1.91059 14.4385 1.98103 14.5113C2.05147 14.5842 2.13557 14.6425 2.22854 14.6828C2.3215 14.7231 2.4215 14.7448 2.52283 14.7465H14.8765C14.9778 14.7448 15.0778 14.7231 15.1708 14.6828C15.2637 14.6425 15.3478 14.5842 15.4183 14.5113C15.4887 14.4385 15.5441 14.3525 15.5813 14.2582C15.6185 14.1639 15.6367 14.0632 15.635 13.9619V4.26105C15.6367 4.15973 15.6185 4.05906 15.5813 3.96479C15.5441 3.87052 15.4887 3.7845 15.4183 3.71164C15.3478 3.63878 15.2637 3.58052 15.1708 3.54017C15.0778 3.49982 14.9778 3.47818 14.8765 3.47649ZM5.23196 12.1457H4.36504V11.2788H5.23196V12.1457ZM5.23196 9.97841H4.36504V9.11149H5.23196V9.97841ZM5.23196 7.8111H4.36504V6.94418H5.23196V7.8111ZM7.83273 12.1457H6.96581V11.2788H7.83273V12.1457ZM7.83273 9.97841H6.96581V9.11149H7.83273V9.97841ZM7.83273 7.8111H6.96581V6.94418H7.83273V7.8111ZM10.4335 12.1457H9.56657V11.2788H10.4335V12.1457ZM10.4335 9.97841H9.56657V9.11149H10.4335V9.97841ZM10.4335 7.8111H9.56657V6.94418H10.4335V7.8111ZM13.0343 12.1457H12.1673V11.2788H13.0343V12.1457ZM13.0343 9.97841H12.1673V9.11149H13.0343V9.97841ZM13.0343 7.8111H12.1673V6.94418H13.0343V7.8111Z" fill="#18AD8B"/>
<path d="M5.2318 5.21024C5.34676 5.21024 5.45701 5.16457 5.5383 5.08328C5.61959 5.00199 5.66526 4.89174 5.66526 4.77678V2.17601C5.66526 2.06105 5.61959 1.9508 5.5383 1.86951C5.45701 1.78822 5.34676 1.74255 5.2318 1.74255C5.11684 1.74255 5.00659 1.78822 4.9253 1.86951C4.84401 1.9508 4.79834 2.06105 4.79834 2.17601V4.77678C4.79834 4.89174 4.84401 5.00199 4.9253 5.08328C5.00659 5.16457 5.11684 5.21024 5.2318 5.21024Z" fill="#18AD8B"/>
<path d="M12.1671 5.21024C12.2821 5.21024 12.3923 5.16457 12.4736 5.08328C12.5549 5.00199 12.6006 4.89174 12.6006 4.77678V2.17601C12.6006 2.06105 12.5549 1.9508 12.4736 1.86951C12.3923 1.78822 12.2821 1.74255 12.1671 1.74255C12.0521 1.74255 11.9419 1.78822 11.8606 1.86951C11.7793 1.9508 11.7336 2.06105 11.7336 2.17601V4.77678C11.7336 4.89174 11.7793 5.00199 11.8606 5.08328C11.9419 5.16457 12.0521 5.21024 12.1671 5.21024Z" fill="#18AD8B"/>
</g>
<defs>
<clipPath id="clip0_12_1099">
<rect width="15.6046" height="15.6046" fill="white" transform="translate(0.897217 0.87561)"/>
</clipPath>
</defs>
</svg>
