<svg width="47" height="51" viewBox="0 0 47 51" fill="none" xmlns="http://www.w3.org/2000/svg">
<path d="M3.7542 1H6.50841C7.23887 1 7.93941 1.28589 8.45593 1.79478C8.97244 2.30368 9.26262 2.99388 9.26262 3.71356V9.14069H17.5252V3.71356C17.5252 2.99388 17.8154 2.30368 18.3319 1.79478C18.8484 1.28589 19.549 1 20.2794 1H25.7878C26.5183 1 27.2188 1.28589 27.7354 1.79478C28.2519 2.30368 28.542 2.99388 28.542 3.71356V9.14069H36.8047V3.71356C36.8047 2.99388 37.0948 2.30368 37.6114 1.79478C38.1279 1.28589 38.8284 1 39.5589 1H42.3131C43.0435 1 43.7441 1.28589 44.2606 1.79478C44.7771 2.30368 45.0673 2.99388 45.0673 3.71356V15.637C45.0675 16.709 44.7455 17.7571 44.1419 18.649L40.4843 24.0544C39.8806 24.9464 39.5586 25.9945 39.5589 27.0665V47.1306C39.5589 47.8503 39.2687 48.5405 38.7522 49.0494C38.2357 49.5583 37.5351 49.8441 36.8047 49.8441H9.26262C8.53215 49.8441 7.83161 49.5583 7.3151 49.0494C6.79858 48.5405 6.50841 47.8503 6.50841 47.1306V27.0665C6.50865 25.9945 6.18664 24.9464 5.583 24.0544L1.92541 18.649C1.32177 17.7571 0.999756 16.709 1 15.637V3.71356C1 2.99388 1.29018 2.30368 1.80669 1.79478C2.3232 1.28589 3.02374 1 3.7542 1Z" fill="white" stroke="black" stroke-width="2" stroke-linecap="round" stroke-linejoin="round"/>
<path d="M17.5252 49.8441V36.2763C17.5252 34.8369 18.1056 33.4565 19.1386 32.4388C20.1716 31.421 21.5727 30.8492 23.0336 30.8492C24.4945 30.8492 25.8956 31.421 26.9287 32.4388C27.9617 33.4565 28.542 34.8369 28.542 36.2763V49.8441" fill="white"/>
<path d="M17.5252 49.8441V36.2763C17.5252 34.8369 18.1056 33.4565 19.1386 32.4388C20.1716 31.421 21.5727 30.8492 23.0336 30.8492C24.4945 30.8492 25.8956 31.421 26.9287 32.4388C27.9617 33.4565 28.542 34.8369 28.542 36.2763V49.8441" stroke="black" stroke-width="2" stroke-linecap="round" stroke-linejoin="round"/>
</svg>
