<svg width="61" height="60" viewBox="0 0 61 60" fill="none" xmlns="http://www.w3.org/2000/svg">
<path d="M32.226 0L30.4742 4.0986L17.9465 33.3715L14.2661 28.6408L12.9984 31.3518L1.74221 55.4669L0 59.205H60.0917L58.9431 55.7607L53.1805 38.4775L52.0626 35.127L48.0903 40.2329L33.8703 4.17267L32.228 0H32.226ZM32.0858 10.5724L37.9252 25.3768L36.4384 27.0162L32.0589 22.1942L27.6813 27.0162L25.8949 25.0434L32.0858 10.5724ZM32.0608 28.6951L36.4404 33.5172L39.7096 29.9124L45.8564 45.5043L47.0511 48.5487L50.7622 43.7785L54.2581 54.2669H6.78251C9.52932 48.3783 12.28 42.4896 15.0287 36.6035L18.8473 41.5119L20.0805 38.633C21.3886 35.5763 22.6986 32.5221 24.0048 29.4655L27.6813 33.5147L32.0608 28.6951Z" fill="white"/>
</svg>
