<svg width="50" height="60" viewBox="0 0 50 60" fill="none" xmlns="http://www.w3.org/2000/svg">
<path d="M35.0826 0.000221538C34.8129 0.0014716 34.5425 0.0133473 34.2713 0.0364735C27.732 0.591252 20.7278 7.2876 19.593 16.3189L49.1626 17.8268V8.65929C48.327 7.68524 47.4672 6.75294 46.5853 5.88702C43.0128 2.37847 39.1289 -0.0175293 35.0828 9.66006e-05L35.0826 0.000221538ZM11.1081 2.55348C7.37056 2.56948 3.48507 4.4177 0 8.3054V18.4684L17.7757 16.1164L17.7382 16.1097C18.1381 12.7735 19.2179 9.73972 20.7501 7.14146C17.9643 4.12506 14.6011 2.53873 11.1079 2.55373L11.1081 2.55348ZM22.4963 18.7436C19.9669 18.7113 11.1486 20.2606 11.1763 22.1285C11.2238 25.3224 21.9624 28.5729 20.9599 28.7561C10.7985 30.6122 5.16083 30.6318 1.79092 34.3536C-2.22822 38.7922 23.9949 44.4691 20.8385 45.5651C14.9303 47.6167 9.70258 50.0973 9.5805 56.6174C9.56294 57.5574 9.66313 58.4156 9.85988 59.205H15.5347C13.9418 56.6255 13.0508 54.1218 14.0268 53.4657C15.1023 55.3542 16.3499 57.3567 17.763 59.205H24.4026C22.3913 57.966 19.0596 55.5288 19.1771 53.0267C19.3424 49.5053 26.032 47.0566 26.3948 47.0566C26.3948 47.0566 21.3561 50.3548 21.2444 53.2902C21.1652 55.3753 23.5494 57.9136 24.9306 59.205H30.2988C28.5994 57.6643 27.5641 56.0899 28.1891 55.2192C29.7942 56.6025 31.6094 58.0241 33.5419 59.205H44.5639C38.7036 57.2064 33.9585 55.1211 32.6631 52.5638C31.6101 50.4849 40.1369 49.0841 38.9022 42.7005C38.3042 39.6081 32.8871 37.5635 17.9129 34.8719C15.2929 34.4009 31.7898 32.4398 31.3209 27.7328C31.0472 24.9851 20.653 24.3764 19.4868 23.1159C18.9966 22.5863 20.0923 19.4207 22.4961 18.7439L22.4963 18.7436ZM7.58353 35.9607C11.0307 35.9426 16.299 38.7638 20.2666 40.5543L20.0818 42.0131C17.1481 40.6873 9.35018 37.3299 6.91922 36.0032C7.13198 35.9757 7.35373 35.9617 7.58353 35.9607ZM35.494 42.6864C35.5047 42.6857 35.5044 42.696 35.4925 42.718C35.8953 44.241 33.2732 48.2246 29.1089 48.0736C30.5706 47.1798 35.2782 42.6978 35.494 42.6863V42.6864Z" fill="white"/>
</svg>
