<svg width="56" height="42" viewBox="0 0 56 42" fill="none" xmlns="http://www.w3.org/2000/svg">
<path d="M43.6095 1.812C44.701 2.42486 46.6375 2.8874 48.3041 2.87584C49.2079 2.86427 50.0177 2.73708 50.5928 2.50581C51.1796 2.29766 51.4026 1.9392 51.6374 1.48822C50.5576 0.78516 49.0436 0.0693809 47.9051 0C46.1563 0.0612864 44.5249 0.940111 43.6095 1.812ZM13.9157 4.14782C13.7162 4.78381 12.9885 5.08446 12.3899 4.77225C9.27972 3.09554 6.46762 3.97437 4.44304 5.77827C0.226056 9.54797 -0.853718 15.8732 0.632145 22.6263C1.4901 26.5116 2.86094 28.7549 5.47822 29.8881C5.47822 29.8997 5.48995 29.8997 5.49582 29.8997C5.75637 30.0153 5.98993 30.1194 6.21058 30.2235L6.75164 27.6795C6.87136 27.1129 7.43237 26.7544 8.00277 26.8701C8.57318 26.9857 8.93936 27.5407 8.81964 28.1074L6.06153 41.0585C6.62371 41.891 7.98634 41.1972 8.56144 40.9197L13.0355 28.6046C14.303 27.5176 15.5236 26.4075 16.4039 25.228C17.1785 24.1758 17.6245 23.1004 17.648 22.5106C17.6714 21.9325 18.1644 21.4815 18.7512 21.5046C19.338 21.5277 19.8075 22.0365 19.7606 22.6147C19.6901 23.9098 19.0329 25.2049 18.1174 26.4538C17.2607 27.6101 16.1574 28.7202 14.9251 29.599L14.5378 30.6282C15.3476 31.6342 16.1105 32.224 16.8381 32.5709C17.871 33.045 18.9155 33.1028 20.1831 32.9524C22.1079 32.7327 24.244 31.4608 25.2885 28.6508C25.6172 27.7605 26.8847 27.7258 27.2603 28.593C28.164 31.0445 31.4972 32.3627 33.7272 31.3683L33.2695 28.674C33.1756 28.1074 33.5629 27.5639 34.138 27.4714C34.7131 27.3673 35.2647 27.7604 35.3586 28.3271L37.4243 40.5728C38.504 41.3013 39.1261 40.8503 39.7599 40.064L38.1402 26.8354C38.058 26.2225 38.5275 25.679 39.1495 25.6559C39.7129 25.6328 40.1824 26.0375 40.2411 26.581L40.7457 30.7091C41.3443 30.5704 41.8138 30.4201 42.2011 30.131C42.7058 29.7609 43.1987 29.1249 43.6212 27.6448C43.8207 26.951 44.6775 26.6619 45.2761 27.1013C46.8723 28.0611 48.4919 26.8932 49.4543 25.6906C50.9684 23.7826 51.1796 20.7877 51.0036 17.6887C50.7571 17.7233 50.5106 17.7465 50.2642 17.758C49.2313 17.8159 48.1633 17.654 47.2478 17.2492C45.7925 16.4398 44.6658 15.1216 43.9381 13.9074C43.4804 13.1211 43.0813 12.3232 42.7058 11.5947C42.072 12.7395 41.4147 14.2659 40.4523 14.4856C38.9852 14.7284 37.6473 14.0577 36.9548 13.017C36.2623 11.9879 36.0863 10.6812 36.3914 9.42077C36.7083 8.06784 37.5416 4.99195 39.0439 2.93365C39.3021 2.59831 39.5721 2.32079 39.842 2.07796C38.9618 1.71949 37.9407 1.63855 37.1543 1.63855C36.4736 1.63855 35.5699 1.84669 34.8422 2.21672C34.1145 2.59831 33.5864 3.11867 33.4103 3.58121C33.0347 4.56411 31.5911 4.44847 31.3799 3.43088C30.9339 0.796724 25.0538 1.37259 23.6806 3.66215C23.2346 4.4716 22.0257 4.3444 21.7441 3.46558C20.7934 0.851072 14.3852 1.00255 13.9157 4.14782ZM54.4072 3.97437C54.6067 5.87078 54.818 7.69781 54.9002 9.24732C55.1114 9.99894 55.6044 11.4328 55.9212 10.0915C56.0269 9.61735 56.0151 8.81947 55.8743 7.94064C55.8626 7.11964 54.1725 2.47112 54.4072 3.97437ZM41.18 3.68528C39.7833 5.4198 38.9265 8.01002 38.4453 9.89487C38.3749 10.5656 38.3749 11.3519 38.7153 11.8722C38.9852 12.2654 39.2786 12.4735 39.8185 12.4504C40.4993 11.3634 41.2387 10.1608 41.6495 9.1895C41.5086 8.27598 41.3208 6.88836 41.2269 5.55856C41.18 4.88788 41.1565 4.26345 41.18 3.68528ZM52.2594 3.9628C51.9777 4.14782 51.696 4.32127 51.3792 4.43691C50.4637 4.80694 49.4074 4.9457 48.3276 4.95726C46.5906 4.96883 44.7831 4.64505 43.2926 3.98593C43.2926 4.40222 43.3043 4.87632 43.3395 5.40824C43.4452 6.86524 43.6916 8.55351 43.809 9.28201C45.0414 11.2015 46.1446 14.4162 48.1281 15.3528C48.8088 15.5841 49.5248 15.7113 50.1468 15.6882C50.851 15.6419 51.3909 15.3875 51.4965 15.2603C51.9073 14.3352 52.189 13.5027 52.3533 12.6817C52.5998 11.4213 52.7523 9.98738 52.7758 9.02761C52.811 8.28755 52.7054 7.48967 52.6467 6.86524C52.4824 7.33934 51.9777 7.62843 51.473 7.54748C50.9684 7.46654 50.5928 7.03869 50.5928 6.5299C50.5928 5.94016 51.0857 5.46606 51.6843 5.48918C52.0364 5.48918 52.365 5.68576 52.5528 5.98641C52.4472 5.28104 52.3885 4.5988 52.2594 3.9628ZM45.4169 5.87078C45.992 5.89391 46.438 6.35645 46.438 6.91149C46.438 7.48967 45.9685 7.95221 45.3817 7.95221C44.8066 7.95221 44.3254 7.48967 44.3254 6.91149C44.3254 6.33332 44.8184 5.85922 45.4169 5.87078ZM50.9918 11.4559C51.4261 11.4444 51.7547 11.6756 51.7547 12.1729C51.7547 13.0748 51.074 13.9074 50.2642 14.3699L50.1468 11.6988C50.4402 11.5369 50.7336 11.4559 50.9918 11.4559ZM48.1633 11.6872C48.3746 11.6756 48.621 11.7335 48.844 11.8375L49.29 14.4393C48.5858 14.0115 47.4826 14.023 47.3535 12.5776C47.2948 11.9763 47.6821 11.6872 48.1633 11.6872ZM44.5367 30.6744C44.1024 31.2642 43.6447 31.7267 43.0579 32.0736L45.0061 39.243C45.8981 39.4164 46.8723 39.3586 47.2596 38.6533L44.5367 30.6744ZM16.2278 34.5713L16.4039 39.9831C17.3311 40.8966 17.9179 40.5381 18.716 39.6361L18.2817 35.0686C17.5423 34.9645 16.8029 34.8142 16.2278 34.5713Z" fill="white"/>
</svg>
