<svg width="54" height="38" viewBox="0 0 54 38" fill="none" xmlns="http://www.w3.org/2000/svg">
<path d="M25.1502 3.82023L22.3592 1.6064L35.1359 0L35.4587 2.52408L25.1502 3.82023ZM18.1621 1.54291H10.7785L8.67999 6.69745H24.6497L18.1621 1.54291ZM50.5294 30.1085C50.5294 28.6698 50.0964 27.2633 49.2851 26.067C48.4738 24.8707 47.3206 23.9383 45.9715 23.3877C44.6223 22.8371 43.1377 22.693 41.7055 22.9737C40.2732 23.2544 38.9576 23.9472 37.925 24.9646C36.8924 25.9819 36.1892 27.2781 35.9042 28.6893C35.6193 30.1004 35.7655 31.5631 36.3244 32.8923C36.8832 34.2216 37.8295 35.3577 39.0437 36.1571C40.2579 36.9564 41.6855 37.3831 43.1458 37.3831C45.104 37.3831 46.982 36.6167 48.3667 35.2524C49.7514 33.8882 50.5293 32.0379 50.5293 30.1085H50.5294ZM17.7601 30.1085C17.7601 28.6698 17.327 27.2633 16.5157 26.067C15.7044 24.8707 14.5513 23.9383 13.2021 23.3877C11.8529 22.8371 10.3683 22.693 8.93607 22.9737C7.50381 23.2544 6.18819 23.9473 5.15558 24.9646C4.12297 25.982 3.41976 27.2782 3.13486 28.6893C2.84997 30.1005 2.99619 31.5631 3.55503 32.8924C4.11387 34.2217 5.06024 35.3578 6.27446 36.1571C7.48867 36.9565 8.9162 37.3831 10.3765 37.3831C12.3348 37.3831 14.2128 36.6167 15.5975 35.2524C16.9822 33.8882 17.7601 32.0379 17.7601 30.1085ZM53.9887 29.2432C53.9888 29.6049 53.9051 29.9618 53.7439 30.2868C53.5828 30.6117 53.3485 30.8961 53.0589 31.1184C53.2048 29.7295 53.0483 28.3259 52.6 27.0013C52.1517 25.6767 51.4218 24.4616 50.459 23.4369C49.4962 22.4123 48.3227 21.6017 47.0168 21.0594C45.7108 20.517 44.3025 20.2553 42.8858 20.2916C41.469 20.328 40.0765 20.6617 38.801 21.2703C37.5255 21.879 36.3964 22.7487 35.4891 23.8213C34.5818 24.894 33.9171 26.145 33.5395 27.4908C33.1618 28.8366 33.0797 30.2463 33.2988 31.6258H20.2235C20.4349 30.2915 20.3646 28.9287 20.0171 27.6224C19.6696 26.3161 19.0524 25.0945 18.2039 24.034C17.3554 22.9734 16.294 22.0967 15.086 21.4587C13.878 20.8207 12.5494 20.435 11.1833 20.3259C9.81713 20.2168 8.44283 20.3865 7.14628 20.8244C5.84974 21.2624 4.65884 21.9591 3.64803 22.8711C2.63722 23.7832 1.82824 24.8908 1.27168 26.1249C0.715115 27.3589 0.422929 28.6928 0.41339 30.0432C0.0787228 29.4648 -0.0582599 28.7957 0.0226765 28.1348L1.98892 11.5799C2.06529 10.9346 2.3796 10.3395 2.87212 9.90759C3.36465 9.47567 4.00106 9.23708 4.66042 9.23714H33.0519C33.3184 9.23725 33.5814 9.29702 33.8211 9.41192C34.0607 9.52682 34.2707 9.69386 34.4353 9.90042L39.6008 16.3863L51.9693 19.039L53.9887 29.2432ZM36.5967 16.7553L32.3884 10.8977H21.4422V16.7584H36.5984L36.5967 16.7553Z" fill="#FFFCFC"/>
</svg>
