<svg width="49" height="46" viewBox="0 0 49 46" fill="none" xmlns="http://www.w3.org/2000/svg">
<path d="M2 31.6025C8.21699 31.6025 12.8791 24.2019 12.8791 24.2019C12.8791 24.2019 17.5412 31.6025 23.7582 31.6025C29.9727 31.6025 36.1897 24.2019 36.1897 24.2019C36.1897 24.2019 42.4067 31.6025 47.0688 31.6025M2 43.9369C8.21699 43.9369 12.8791 36.5363 12.8791 36.5363C12.8791 36.5363 17.5412 43.9369 23.7582 43.9369C29.9727 43.9369 36.1897 36.5363 36.1897 36.5363C36.1897 36.5363 42.4067 43.9369 47.0688 43.9369M42.0612 19.2681C42.0612 17.0004 41.6078 14.755 40.727 12.6599C39.8462 10.5648 38.5552 8.66121 36.9277 7.05772C35.3002 5.45422 33.368 4.18226 31.2416 3.31446C29.1152 2.44665 26.836 2 24.5344 2C22.2328 2 19.9536 2.44665 17.8272 3.31446C15.7008 4.18226 13.7686 5.45422 12.1411 7.05772C10.5136 8.66121 9.22259 10.5648 8.34179 12.6599C7.46099 14.755 7.00765 17.0004 7.00765 19.2681" stroke="white" stroke-width="3" stroke-linecap="round" stroke-linejoin="round"/>
</svg>
