<svg width="20" height="20" viewBox="0 0 20 20" fill="none" xmlns="http://www.w3.org/2000/svg">
<path fill-rule="evenodd" clip-rule="evenodd" d="M5.665 1.5C3.135 1.5 1.5 3.233 1.5 5.916V14.084C1.5 16.767 3.135 18.5 5.665 18.5H14.333C16.864 18.5 18.5 16.767 18.5 14.084V5.916C18.5 3.233 16.864 1.5 14.334 1.5H5.665ZM14.333 20H5.665C2.276 20 0 17.622 0 14.084V5.916C0 2.378 2.276 0 5.665 0H14.334C17.723 0 20 2.378 20 5.916V14.084C20 17.622 17.723 20 14.333 20Z" fill="#18AD8B"/>
<path fill-rule="evenodd" clip-rule="evenodd" d="M8.81349 13.123C8.62249 13.123 8.42949 13.05 8.28349 12.903L5.90949 10.53C5.61649 10.237 5.61649 9.76301 5.90949 9.47001C6.20249 9.17701 6.67649 9.17701 6.96949 9.47001L8.81349 11.312L13.0295 7.09701C13.3225 6.80401 13.7965 6.80401 14.0895 7.09701C14.3825 7.39001 14.3825 7.86401 14.0895 8.15701L9.34349 12.903C9.19749 13.05 9.00549 13.123 8.81349 13.123Z" fill="#18AD8B"/>
</svg>
