<svg width="17" height="17" viewBox="0 0 17 17" fill="none" xmlns="http://www.w3.org/2000/svg">
<g clip-path="url(#clip0_12_1089)">
<path d="M8.72999 0.601807C4.44482 0.601807 0.897217 4.08815 0.897217 8.37363C0.897217 12.6591 4.44482 16.2064 8.72999 16.2064C13.0149 16.2064 16.5018 12.6591 16.5018 8.37363C16.5018 4.08815 13.0149 0.601807 8.72999 0.601807ZM8.73609 14.3838C5.45912 14.3838 2.71979 11.6506 2.71979 8.37363C2.71979 5.09666 5.45912 2.42438 8.73609 2.42438C12.0131 2.42438 14.6792 5.09666 14.6792 8.37363C14.6792 11.6506 12.0131 14.3838 8.73609 14.3838Z" fill="#18AD8B"/>
<path d="M8.72992 3.34485C5.95736 3.34485 3.64014 5.60081 3.64014 8.37367C3.64014 11.1465 5.95736 13.4635 8.72992 13.4635C11.5022 13.4635 13.7587 11.1465 13.7587 8.37367C13.7587 5.60081 11.5022 3.34485 8.72992 3.34485ZM12.3872 8.83084H8.72992C8.47726 8.83084 8.27275 8.62634 8.27275 8.37367V4.71635C8.27275 4.46369 8.47726 4.25918 8.72992 4.25918C8.98258 4.25918 9.18708 4.46369 9.18708 4.71635V7.91651H12.3872C12.6399 7.91651 12.8444 8.12101 12.8444 8.37367C12.8444 8.62634 12.6399 8.83084 12.3872 8.83084Z" fill="#18AD8B"/>
</g>
<defs>
<clipPath id="clip0_12_1089">
<rect width="15.6046" height="15.6046" fill="white" transform="translate(0.897217 0.601807)"/>
</clipPath>
</defs>
</svg>
