<svg width="30" height="31" viewBox="0 0 30 31" fill="none" xmlns="http://www.w3.org/2000/svg">
<path fill-rule="evenodd" clip-rule="evenodd" d="M20.8261 22.7945C18.63 24.5738 15.8346 25.6394 12.7907 25.6394C5.72668 25.6394 0 19.8998 0 12.8197C0 5.73966 5.72668 0 12.7907 0C19.8548 0 25.5815 5.73966 25.5815 12.8197C25.5815 16.3456 24.1614 19.5388 21.8634 21.856L29.7956 29.8065C30.0681 30.0793 30.0681 30.5222 29.7956 30.7954C29.5231 31.0682 29.0815 31.0682 28.809 30.7954L20.8261 22.7945ZM24.186 12.8201C24.186 19.1278 19.0842 24.2413 12.7907 24.2413C6.4972 24.2413 1.39527 19.1279 1.39527 12.8201C1.39527 6.51234 6.49711 1.39885 12.7907 1.39885C19.0841 1.39885 24.186 6.51225 24.186 12.8201Z" fill="#272727"/>
</svg>
