<svg width="32" height="35" viewBox="0 0 32 35" fill="none" xmlns="http://www.w3.org/2000/svg">
<path d="M30.2499 3.84375H25.9844C25.8621 3.49765 25.6358 3.1978 25.3365 2.98524C25.0372 2.77267 24.6795 2.65777 24.3124 2.65625H23.1249C22.9675 2.65625 22.8164 2.59369 22.7051 2.48234C22.5937 2.37099 22.5312 2.21997 22.5312 2.0625C22.5288 1.5908 22.3404 1.1391 22.0069 0.805553C21.6733 0.47201 21.2216 0.283591 20.7499 0.28125H17.1874C16.715 0.28125 16.2619 0.468917 15.9279 0.802966C15.5938 1.13702 15.4062 1.59008 15.4062 2.0625C15.4063 2.14178 15.3902 2.22024 15.3589 2.29305C15.3275 2.36587 15.2816 2.43148 15.2239 2.48584C15.1703 2.54044 15.1062 2.58367 15.0355 2.61294C14.9648 2.64222 14.8889 2.65695 14.8124 2.65625H13.6249C13.2578 2.65777 12.9002 2.77267 12.6009 2.98524C12.3016 3.1978 12.0753 3.49765 11.9529 3.84375H7.68742C7.37248 3.84375 7.07043 3.96886 6.84773 4.19156C6.62503 4.41426 6.49992 4.71631 6.49992 5.03125V16.9365C4.8762 17.0822 3.36576 17.8302 2.26572 19.0334C1.16568 20.2366 0.555664 21.8078 0.555664 23.4381C0.555664 25.0683 1.16568 26.6396 2.26572 27.8428C3.36576 29.0459 4.8762 29.7939 6.49992 29.9397V33.5312C6.49992 33.8462 6.62503 34.1482 6.84773 34.3709C7.07043 34.5936 7.37248 34.7188 7.68742 34.7188H30.2499C30.5649 34.7188 30.8669 34.5936 31.0896 34.3709C31.3123 34.1482 31.4374 33.8462 31.4374 33.5312V5.03125C31.4374 4.71631 31.3123 4.41426 31.0896 4.19156C30.8669 3.96886 30.5649 3.84375 30.2499 3.84375ZM10.0624 29.2521C10.0701 29.2479 10.0773 29.2426 10.0856 29.2384C10.3277 29.1129 10.5617 28.9723 10.7862 28.8175C10.8147 28.7979 10.8456 28.7795 10.8723 28.7581C11.0866 28.6056 11.2914 28.4402 11.4856 28.2629C11.5153 28.2356 11.545 28.2095 11.5735 28.1822C11.7611 28.005 11.9379 27.8169 12.1031 27.6187C12.1299 27.5872 12.1563 27.5553 12.1821 27.5231C12.343 27.3233 12.4919 27.1141 12.628 26.8967L12.691 26.7922C12.8245 26.5707 12.9449 26.3415 13.0514 26.1058C13.0662 26.072 13.0799 26.0375 13.0941 26.0037C13.1991 25.7608 13.2891 25.5118 13.3637 25.2579C13.372 25.2288 13.3785 25.1986 13.3868 25.1701C13.4607 24.9053 13.5178 24.6362 13.5578 24.3643C13.5578 24.3459 13.5614 24.3269 13.5638 24.3085C13.6453 23.7299 13.6453 23.1427 13.5638 22.5641C13.5638 22.5457 13.5602 22.5267 13.5578 22.5083C13.5175 22.236 13.4604 21.9666 13.3868 21.7014C13.3785 21.6729 13.372 21.642 13.3637 21.6153C13.2892 21.3606 13.199 21.1107 13.0935 20.8672L13.052 20.768C12.9449 20.5309 12.8239 20.3004 12.6898 20.0775L12.6304 19.9783C12.4928 19.7586 12.3424 19.5472 12.1797 19.3454C12.1561 19.3157 12.1319 19.2864 12.1073 19.2575C11.9408 19.0567 11.7624 18.8662 11.5729 18.6869C11.5468 18.662 11.5201 18.6382 11.4934 18.6139C11.2966 18.4342 11.089 18.2669 10.8717 18.1128C10.8462 18.0943 10.8195 18.0771 10.7933 18.0593C10.5673 17.9035 10.3318 17.7621 10.088 17.636C10.0796 17.6318 10.0731 17.6259 10.0648 17.6217V7.40625H11.846C11.846 7.72119 11.9712 8.02324 12.1939 8.24594C12.4166 8.46864 12.7186 8.59375 13.0335 8.59375H24.9062C25.2211 8.59375 25.5232 8.46864 25.7459 8.24594C25.9686 8.02324 26.0937 7.72119 26.0937 7.40625H27.8749V31.1562H10.0624V29.2521ZM13.6249 3.84375H14.8124C15.0451 3.84571 15.2757 3.80082 15.4906 3.71177C15.7056 3.62272 15.9004 3.49132 16.0635 3.32541C16.2325 3.16159 16.3666 2.96523 16.4577 2.74819C16.5489 2.53114 16.5951 2.29789 16.5937 2.0625C16.5937 1.90503 16.6562 1.75401 16.7676 1.64266C16.8789 1.53131 17.03 1.46875 17.1874 1.46875H20.7499C20.8292 1.46859 20.9077 1.48469 20.9805 1.51604C21.0533 1.54739 21.1189 1.59333 21.1733 1.65103C21.2279 1.70465 21.2711 1.76872 21.3004 1.83941C21.3296 1.91011 21.3444 1.98598 21.3437 2.0625C21.3437 2.53492 21.5313 2.98798 21.8654 3.32203C22.1994 3.65608 22.6525 3.84375 23.1249 3.84375H24.3124C24.4699 3.84375 24.6209 3.90631 24.7323 4.01766C24.8436 4.12901 24.9062 4.28003 24.9062 4.4375V7.40625H13.0312V4.4375C13.0312 4.28003 13.0937 4.12901 13.2051 4.01766C13.3164 3.90631 13.4675 3.84375 13.6249 3.84375ZM7.68742 5.03125H11.8437V6.21875H9.46867C9.3112 6.21875 9.16018 6.28131 9.04883 6.39266C8.93748 6.504 8.87492 6.65503 8.87492 6.8125V17.158C8.76369 17.1259 8.65167 17.0972 8.53886 17.0719C8.4746 17.0569 8.41007 17.043 8.3453 17.0303C8.19434 17.0015 8.04245 16.9777 7.88989 16.9591C7.83764 16.9532 7.78598 16.9443 7.73314 16.9389C7.7177 16.9389 7.70286 16.9342 7.68742 16.933V5.03125ZM1.74992 23.4375C1.75149 22.0207 2.315 20.6624 3.31681 19.6606C4.31861 18.6588 5.6769 18.0953 7.09367 18.0938C7.82982 18.0919 8.55812 18.245 9.23117 18.5432C10.1844 18.9582 10.9957 19.6425 11.5656 20.5121C12.1354 21.3817 12.4389 22.3987 12.4389 23.4384C12.4389 24.478 12.1354 25.4951 11.5656 26.3647C10.9957 27.2343 10.1844 27.9185 9.23117 28.3336C8.558 28.6312 7.8297 28.7837 7.09367 28.7812C5.6769 28.7797 4.31861 28.2162 3.31681 27.2144C2.315 26.2126 1.75149 24.8543 1.74992 23.4375ZM30.2499 33.5312H7.68742V29.942C7.70286 29.942 7.7177 29.9379 7.73314 29.9361C7.78658 29.9307 7.83883 29.9218 7.89167 29.9153C8.04367 29.8969 8.19389 29.8743 8.34352 29.8452C8.40942 29.8322 8.47474 29.8173 8.54064 29.8025C8.65306 29.7772 8.76449 29.7487 8.87492 29.717V31.75C8.87492 31.9075 8.93748 32.0585 9.04883 32.1698C9.16018 32.2812 9.3112 32.3438 9.46867 32.3438H28.4687C28.6261 32.3438 28.7772 32.2812 28.8885 32.1698C28.9999 32.0585 29.0624 31.9075 29.0624 31.75V6.8125C29.0624 6.65503 28.9999 6.504 28.8885 6.39266C28.7772 6.28131 28.6261 6.21875 28.4687 6.21875H26.0937V5.03125H30.2499V33.5312Z" fill="#ffffff"/>
<path d="M18.3748 3.84375H19.5623C19.7197 3.84375 19.8707 3.78119 19.9821 3.66984C20.0934 3.55849 20.156 3.40747 20.156 3.25C20.156 3.09253 20.0934 2.94151 19.9821 2.83016C19.8707 2.71881 19.7197 2.65625 19.5623 2.65625H18.3748C18.2173 2.65625 18.0663 2.71881 17.9549 2.83016C17.8436 2.94151 17.781 3.09253 17.781 3.25C17.781 3.40747 17.8436 3.55849 17.9549 3.66984C18.0663 3.78119 18.2173 3.84375 18.3748 3.84375ZM14.8123 13.3438H23.1248C23.2822 13.3438 23.4332 13.2812 23.5446 13.1698C23.6559 13.0585 23.7185 12.9075 23.7185 12.75C23.7185 12.5925 23.6559 12.4415 23.5446 12.3302C23.4332 12.2188 23.2822 12.1562 23.1248 12.1562H14.8123C14.6548 12.1562 14.5038 12.2188 14.3924 12.3302C14.2811 12.4415 14.2185 12.5925 14.2185 12.75C14.2185 12.9075 14.2811 13.0585 14.3924 13.1698C14.5038 13.2812 14.6548 13.3438 14.8123 13.3438ZM24.906 15.7188H13.031C12.8735 15.7188 12.7225 15.7813 12.6112 15.8927C12.4998 16.004 12.4373 16.155 12.4373 16.3125C12.4373 16.47 12.4998 16.621 12.6112 16.7323C12.7225 16.8437 12.8735 16.9062 13.031 16.9062H24.906C25.0635 16.9062 25.2145 16.8437 25.3258 16.7323C25.4372 16.621 25.4998 16.47 25.4998 16.3125C25.4998 16.155 25.4372 16.004 25.3258 15.8927C25.2145 15.7813 25.0635 15.7188 24.906 15.7188ZM24.906 19.2812H15.406C15.2485 19.2812 15.0975 19.3438 14.9862 19.4552C14.8748 19.5665 14.8123 19.7175 14.8123 19.875C14.8123 20.0325 14.8748 20.1835 14.9862 20.2948C15.0975 20.4062 15.2485 20.4688 15.406 20.4688H24.906C25.0635 20.4688 25.2145 20.4062 25.3258 20.2948C25.4372 20.1835 25.4998 20.0325 25.4998 19.875C25.4998 19.7175 25.4372 19.5665 25.3258 19.4552C25.2145 19.3438 25.0635 19.2812 24.906 19.2812ZM24.906 22.8438H15.9998C15.8423 22.8438 15.6913 22.9063 15.5799 23.0177C15.4686 23.129 15.406 23.28 15.406 23.4375C15.406 23.595 15.4686 23.746 15.5799 23.8573C15.6913 23.9687 15.8423 24.0312 15.9998 24.0312H24.906C25.0635 24.0312 25.2145 23.9687 25.3258 23.8573C25.4372 23.746 25.4998 23.595 25.4998 23.4375C25.4998 23.28 25.4372 23.129 25.3258 23.0177C25.2145 22.9063 25.0635 22.8438 24.906 22.8438ZM24.906 26.4062H15.406C15.2485 26.4062 15.0975 26.4688 14.9862 26.5802C14.8748 26.6915 14.8123 26.8425 14.8123 27C14.8123 27.1575 14.8748 27.3085 14.9862 27.4198C15.0975 27.5312 15.2485 27.5938 15.406 27.5938H24.906C25.0635 27.5938 25.2145 27.5312 25.3258 27.4198C25.4372 27.3085 25.4998 27.1575 25.4998 27C25.4998 26.8425 25.4372 26.6915 25.3258 26.5802C25.2145 26.4688 25.0635 26.4062 24.906 26.4062ZM9.84909 21.1997C9.78917 21.1496 9.71996 21.1118 9.64543 21.0886C9.57089 21.0653 9.4925 21.0569 9.41474 21.064C9.33697 21.0711 9.26136 21.0934 9.19224 21.1297C9.12312 21.166 9.06184 21.2156 9.01191 21.2757L6.45878 24.3394L5.13709 23.0177C5.02511 22.9096 4.87513 22.8497 4.71945 22.8511C4.56377 22.8524 4.41485 22.9149 4.30476 23.025C4.19468 23.135 4.13223 23.284 4.13088 23.4396C4.12953 23.5953 4.18938 23.7453 4.29753 23.8573L6.07878 25.6385C6.13391 25.694 6.19952 25.7379 6.27179 25.7678C6.34406 25.7977 6.42155 25.8129 6.49975 25.8125H6.52647C6.60891 25.8087 6.68967 25.7878 6.76365 25.7512C6.83763 25.7146 6.90324 25.6631 6.95634 25.5999L9.92509 22.0374C9.97525 21.9775 10.0131 21.9082 10.0364 21.8337C10.0597 21.7591 10.0681 21.6806 10.0611 21.6028C10.054 21.5249 10.0316 21.4493 9.99526 21.3801C9.95889 21.3109 9.90922 21.2496 9.84909 21.1997Z" fill="#ffffff"/>
</svg>
