<svg width="32" height="39" viewBox="0 0 32 39" fill="none" xmlns="http://www.w3.org/2000/svg">
<path d="M9.6666 27.7333H8.39993C8.23196 27.7333 8.07087 27.8001 7.9521 27.9188C7.83333 28.0376 7.7666 28.1987 7.7666 28.3667C7.7666 28.5346 7.83333 28.6957 7.9521 28.8145C8.07087 28.9333 8.23196 29 8.39993 29H9.6666C9.83457 29 9.99566 28.9333 10.1144 28.8145C10.2332 28.6957 10.2999 28.5346 10.2999 28.3667C10.2999 28.1987 10.2332 28.0376 10.1144 27.9188C9.99566 27.8001 9.83457 27.7333 9.6666 27.7333ZM27.3999 27.7333H12.1999C12.032 27.7333 11.8709 27.8001 11.7521 27.9188C11.6333 28.0376 11.5666 28.1987 11.5666 28.3667C11.5666 28.5346 11.6333 28.6957 11.7521 28.8145C11.8709 28.9333 12.032 29 12.1999 29H27.3999C27.5679 29 27.729 28.9333 27.8478 28.8145C27.9665 28.6957 28.0333 28.5346 28.0333 28.3667C28.0333 28.1987 27.9665 28.0376 27.8478 27.9188C27.729 27.8001 27.5679 27.7333 27.3999 27.7333ZM9.6666 23.9333H8.39993C8.23196 23.9333 8.07087 24.0001 7.9521 24.1188C7.83333 24.2376 7.7666 24.3987 7.7666 24.5667C7.7666 24.7346 7.83333 24.8957 7.9521 25.0145C8.07087 25.1333 8.23196 25.2 8.39993 25.2H9.6666C9.83457 25.2 9.99566 25.1333 10.1144 25.0145C10.2332 24.8957 10.2999 24.7346 10.2999 24.5667C10.2999 24.3987 10.2332 24.2376 10.1144 24.1188C9.99566 24.0001 9.83457 23.9333 9.6666 23.9333ZM27.3999 23.9333H12.1999C12.032 23.9333 11.8709 24.0001 11.7521 24.1188C11.6333 24.2376 11.5666 24.3987 11.5666 24.5667C11.5666 24.7346 11.6333 24.8957 11.7521 25.0145C11.8709 25.1333 12.032 25.2 12.1999 25.2H27.3999C27.5679 25.2 27.729 25.1333 27.8478 25.0145C27.9665 24.8957 28.0333 24.7346 28.0333 24.5667C28.0333 24.3987 27.9665 24.2376 27.8478 24.1188C27.729 24.0001 27.5679 23.9333 27.3999 23.9333ZM9.6666 20.1333H8.39993C8.23196 20.1333 8.07087 20.2001 7.9521 20.3188C7.83333 20.4376 7.7666 20.5987 7.7666 20.7667C7.7666 20.9346 7.83333 21.0957 7.9521 21.2145C8.07087 21.3333 8.23196 21.4 8.39993 21.4H9.6666C9.83457 21.4 9.99566 21.3333 10.1144 21.2145C10.2332 21.0957 10.2999 20.9346 10.2999 20.7667C10.2999 20.5987 10.2332 20.4376 10.1144 20.3188C9.99566 20.2001 9.83457 20.1333 9.6666 20.1333ZM27.3999 20.1333H12.1999C12.032 20.1333 11.8709 20.2001 11.7521 20.3188C11.6333 20.4376 11.5666 20.5987 11.5666 20.7667C11.5666 20.9346 11.6333 21.0957 11.7521 21.2145C11.8709 21.3333 12.032 21.4 12.1999 21.4H27.3999C27.5679 21.4 27.729 21.3333 27.8478 21.2145C27.9665 21.0957 28.0333 20.9346 28.0333 20.7667C28.0333 20.5987 27.9665 20.4376 27.8478 20.3188C27.729 20.2001 27.5679 20.1333 27.3999 20.1333ZM9.6666 16.3333H8.39993C8.23196 16.3333 8.07087 16.4001 7.9521 16.5188C7.83333 16.6376 7.7666 16.7987 7.7666 16.9667C7.7666 17.1346 7.83333 17.2957 7.9521 17.4145C8.07087 17.5333 8.23196 17.6 8.39993 17.6H9.6666C9.83457 17.6 9.99566 17.5333 10.1144 17.4145C10.2332 17.2957 10.2999 17.1346 10.2999 16.9667C10.2999 16.7987 10.2332 16.6376 10.1144 16.5188C9.99566 16.4001 9.83457 16.3333 9.6666 16.3333ZM27.3999 16.3333H12.1999C12.032 16.3333 11.8709 16.4001 11.7521 16.5188C11.6333 16.6376 11.5666 16.7987 11.5666 16.9667C11.5666 17.1346 11.6333 17.2957 11.7521 17.4145C11.8709 17.5333 12.032 17.6 12.1999 17.6H27.3999C27.5679 17.6 27.729 17.5333 27.8478 17.4145C27.9665 17.2957 28.0333 17.1346 28.0333 16.9667C28.0333 16.7987 27.9665 16.6376 27.8478 16.5188C27.729 16.4001 27.5679 16.3333 27.3999 16.3333ZM9.6666 12.5333H8.39993C8.23196 12.5333 8.07087 12.6001 7.9521 12.7188C7.83333 12.8376 7.7666 12.9987 7.7666 13.1667C7.7666 13.3346 7.83333 13.4957 7.9521 13.6145C8.07087 13.7333 8.23196 13.8 8.39993 13.8H9.6666C9.83457 13.8 9.99566 13.7333 10.1144 13.6145C10.2332 13.4957 10.2999 13.3346 10.2999 13.1667C10.2999 12.9987 10.2332 12.8376 10.1144 12.7188C9.99566 12.6001 9.83457 12.5333 9.6666 12.5333ZM27.3999 12.5333H12.1999C12.032 12.5333 11.8709 12.6001 11.7521 12.7188C11.6333 12.8376 11.5666 12.9987 11.5666 13.1667C11.5666 13.3346 11.6333 13.4957 11.7521 13.6145C11.8709 13.7333 12.032 13.8 12.1999 13.8H27.3999C27.5679 13.8 27.729 13.7333 27.8478 13.6145C27.9665 13.4957 28.0333 13.3346 28.0333 13.1667C28.0333 12.9987 27.9665 12.8376 27.8478 12.7188C27.729 12.6001 27.5679 12.5333 27.3999 12.5333Z" fill="#877344"/>
<path d="M31.8254 9.9601C31.8223 9.90461 31.8114 9.84982 31.7931 9.79733C31.7862 9.77707 31.7811 9.75743 31.7722 9.7378C31.7414 9.66889 31.6985 9.60604 31.6456 9.55223L22.7789 0.685567C22.7251 0.63262 22.6622 0.589722 22.5933 0.5589C22.5737 0.550033 22.5541 0.544967 22.5344 0.538C22.4815 0.519787 22.4263 0.508712 22.3704 0.505067C22.3596 0.506967 22.3476 0.5 22.3337 0.5H4.60033C4.43235 0.5 4.27126 0.566726 4.15249 0.685499C4.03372 0.804272 3.96699 0.965363 3.96699 1.13333V3.03333H0.800326C0.632355 3.03333 0.471264 3.10006 0.352491 3.21883C0.233718 3.33761 0.166992 3.4987 0.166992 3.66667V37.8667C0.166992 38.0346 0.233718 38.1957 0.352491 38.3145C0.471264 38.4333 0.632355 38.5 0.800326 38.5H27.4003C27.5683 38.5 27.7294 38.4333 27.8482 38.3145C27.9669 38.1957 28.0337 38.0346 28.0337 37.8667V34.7H31.2003C31.3683 34.7 31.5294 34.6333 31.6482 34.5145C31.7669 34.3957 31.8337 34.2346 31.8337 34.0667V10C31.8337 9.98607 31.8267 9.97403 31.8254 9.9601ZM22.967 2.6622L29.6715 9.36667H22.967V2.6622ZM26.767 37.2333H1.43366V4.3H3.96699V34.0667C3.96699 34.2346 4.03372 34.3957 4.15249 34.5145C4.27126 34.6333 4.43235 34.7 4.60033 34.7H26.767V37.2333ZM30.567 33.4333H5.23366V1.76667H21.7003V10C21.7003 10.168 21.7671 10.3291 21.8858 10.4478C22.0046 10.5666 22.1657 10.6333 22.3337 10.6333H30.567V33.4333Z" fill="#877344"/>
<path d="M12.1999 6.20001H8.39993C8.23196 6.20001 8.07087 6.26674 7.9521 6.38551C7.83333 6.50428 7.7666 6.66538 7.7666 6.83335V10.6333C7.7666 10.8013 7.83333 10.9624 7.9521 11.0812C8.07087 11.2 8.23196 11.2667 8.39993 11.2667H12.1999C12.3679 11.2667 12.529 11.2 12.6478 11.0812C12.7665 10.9624 12.8333 10.8013 12.8333 10.6333V6.83335C12.8333 6.66538 12.7665 6.50428 12.6478 6.38551C12.529 6.26674 12.3679 6.20001 12.1999 6.20001ZM11.5666 10H9.03327V7.46668H11.5666V10Z" fill="#877344"/>
</svg>
