<svg width="38" height="39" viewBox="0 0 38 39" fill="none" xmlns="http://www.w3.org/2000/svg">
<path d="M14.5667 29.6333C17.7498 29.6361 20.8454 28.5907 23.3751 26.6586L24.7063 27.9898C24.6679 28.4368 24.7943 28.8823 25.0616 29.2426C25.7361 30.1476 27.1706 31.9684 29.1992 34.0021C31.2316 36.0294 33.0524 37.4639 33.9593 38.1396C34.313 38.4027 34.7495 38.5298 35.1891 38.4974C35.6287 38.4651 36.042 38.2756 36.3533 37.9636L37.4642 36.8527L37.4674 36.8495C37.7781 36.5377 37.9664 36.1245 37.9979 35.6854C38.0294 35.2463 37.902 34.8105 37.639 34.4574C36.9645 33.5524 35.53 31.7316 33.5014 29.6979C31.4691 27.6706 29.6482 26.2361 28.7407 25.5597C28.3813 25.2933 27.9368 25.1678 27.4911 25.207L26.1592 23.8751C28.0913 21.3454 29.1368 18.2498 29.134 15.0667C29.1333 7.0341 22.5992 0.5 14.5667 0.5C6.5341 0.5 0 7.0341 0 15.0667C0 23.0992 6.5341 29.6333 14.5667 29.6333ZM6.96667 25.9657V24.383C6.96619 23.8529 7.14315 23.3378 7.46934 22.9199C7.79554 22.502 8.25221 22.2053 8.7666 22.077L11.0637 21.5032C11.4861 22.1929 12.4855 23.3 14.5667 23.3C16.6478 23.3 17.6472 22.1929 18.0696 21.5032L20.3661 22.077C20.8807 22.2051 21.3375 22.5017 21.6639 22.9196C21.9902 23.3376 22.1672 23.8527 22.1667 24.383V25.9657C20.0102 27.4743 17.3926 28.3667 14.5667 28.3667C11.7407 28.3667 9.12317 27.4743 6.96667 25.9657ZM9.59247 11.9633C9.53324 11.7358 9.50218 11.5018 9.5 11.2667V8.73333C9.5 8.3964 9.63173 8.07847 9.87177 7.83843C10.1118 7.5984 10.4297 7.46667 10.7667 7.46667C10.9997 7.46667 11.2182 7.32987 11.3291 7.12467C11.3493 7.08667 11.844 6.2 13.3 6.2C13.9302 6.2 14.3026 6.40077 14.7345 6.63447C15.188 6.87893 15.7016 7.15633 16.4667 7.15633C17.2089 7.15633 18.0133 6.90743 18.8689 6.4109C19.1818 6.8612 19.6333 7.69087 19.6333 8.73333C19.6333 10.0545 19.4022 10.9943 19.1545 11.6296C19.0893 11.5827 19.0247 11.5346 18.9544 11.4928C18.8782 11.1642 18.7105 10.864 18.4705 10.627C18.3024 10.4594 18.1029 10.3267 17.8833 10.2365C17.6638 10.1463 17.4286 10.1003 17.1912 10.1013H17.1785C16.1443 10.0836 14.7364 9.90753 13.7471 8.9189C13.6763 8.85019 13.5907 8.79873 13.4967 8.76853C13.4028 8.73832 13.3032 8.73018 13.2056 8.74473C13.0074 8.77387 12.832 8.89927 12.7376 9.07533C12.7243 9.10003 12.4019 9.68207 11.5254 9.9088C10.754 10.1083 10.2011 10.7581 10.139 11.5168C9.9351 11.6422 9.7527 11.7936 9.59247 11.9633ZM10.9161 12.5333L11.0498 12.4668C11.2645 12.3592 11.4 12.14 11.4 11.9V11.6606C11.4 11.4149 11.578 11.2033 11.8433 11.1349C12.4249 10.9902 12.9574 10.6931 13.3861 10.2742C14.6072 11.178 16.074 11.3762 17.1874 11.3686C17.3318 11.375 17.4749 11.4237 17.5782 11.5263C17.6276 11.5753 17.6668 11.6336 17.6934 11.6979C17.7201 11.7621 17.7336 11.8311 17.7333 11.9006C17.7333 12.1407 17.8689 12.3598 18.0836 12.4675L18.2172 12.534C18.7004 12.7753 19 13.2604 19 13.8006C19 14.3409 18.6998 14.826 18.2172 15.0673L18.0836 15.1338C17.9946 15.1787 17.9175 15.2438 17.8582 15.3238C17.7989 15.4039 17.7592 15.4967 17.7422 15.5949C17.7194 15.7285 17.1513 18.8673 14.5667 18.8673C11.982 18.8673 11.4139 15.7285 11.3911 15.5968C11.3746 15.4983 11.3351 15.4051 11.2758 15.3247C11.2165 15.2444 11.139 15.1792 11.0498 15.1344L10.9161 15.0679C10.4329 14.8266 10.1333 14.3415 10.1333 13.8013C10.1333 13.261 10.4335 12.7759 10.9161 12.5346V12.5333ZM17.055 20.735C16.8505 21.1201 16.1943 22.0333 14.566 22.0333C12.9377 22.0333 12.2841 21.1213 12.0777 20.7344L12.4754 19.5481C13.0492 19.9053 13.7395 20.1333 14.566 20.1333C15.3925 20.1333 16.0848 19.9047 16.6592 19.5469L17.0544 20.7356L17.055 20.735ZM32.6046 30.5935C34.5762 32.5701 35.9683 34.3371 36.6206 35.2117C36.7023 35.3223 36.7418 35.4584 36.7318 35.5955C36.7218 35.7326 36.663 35.8616 36.5661 35.9591L35.4603 37.0649C35.3633 37.1619 35.2348 37.2211 35.098 37.2316C34.9611 37.2422 34.8251 37.2035 34.7143 37.1225C33.8371 36.4683 32.0701 35.0768 30.0947 33.1059C28.1232 31.1293 26.7311 29.3623 26.0788 28.4876C25.997 28.3776 25.9574 28.2419 25.9671 28.1052C25.9767 27.9685 26.035 27.8397 26.1313 27.7422L27.239 26.6345C27.3475 26.5263 27.4944 26.4655 27.6475 26.4654C27.766 26.4654 27.8844 26.5021 27.9851 26.5769C28.8623 27.2311 30.6293 28.6225 32.6046 30.5935ZM26.2871 25.7953L25.2953 26.7871L24.3542 25.846C24.7006 25.5312 25.0319 25.2 25.346 24.8542L26.2871 25.7953ZM14.5667 1.76667C21.9 1.76667 27.8667 7.7333 27.8667 15.0667C27.8667 18.9921 26.1472 22.5147 23.4333 24.9517V24.383C23.4341 23.5704 23.1628 22.7809 22.6627 22.1404C22.1625 21.5 21.4624 21.0453 20.6739 20.849L18.2248 20.2372L17.6928 18.6374C18.3603 17.8407 18.7524 16.8736 18.9278 16.1224C19.3362 15.888 19.6752 15.5496 19.9103 15.1417C20.1455 14.7338 20.2684 14.2709 20.2667 13.8C20.2664 13.4317 20.1905 13.0674 20.0437 12.7297C20.425 12.0089 20.9 10.7157 20.9 8.73333C20.9 7.25007 20.2236 6.1107 19.8208 5.56477C19.4642 5.079 18.8144 4.9536 18.3185 5.26457C17.6409 5.6737 17.0006 5.88903 16.4667 5.88903C16.0214 5.88903 15.7339 5.73387 15.3362 5.51853C14.8523 5.2576 14.2506 4.9327 13.3 4.9327C11.6546 4.9327 10.7819 5.75033 10.4139 6.22343C9.86887 6.29965 9.36373 6.5521 8.9756 6.94227C8.73946 7.1767 8.5522 7.45567 8.42467 7.76301C8.29715 8.07035 8.2319 8.39995 8.2327 8.7327V11.266C8.2327 12.0989 8.47717 12.8589 8.89263 13.4289C8.81665 13.9575 8.90111 14.4968 9.13507 14.9769C9.36903 15.457 9.74172 15.8559 10.2049 16.1218C10.3803 16.8748 10.7736 17.8438 11.4437 18.6418L10.9092 20.2359L8.4588 20.8484C7.67044 21.0449 6.97053 21.4996 6.47057 22.1401C5.9706 22.7805 5.69934 23.5699 5.7 24.3824V24.9511C2.98617 22.5147 1.26667 18.9914 1.26667 15.066C1.26667 7.7333 7.2333 1.76667 14.5667 1.76667Z" fill="#877344"/>
</svg>
