<svg width="30" height="30" viewBox="0 0 30 30" fill="none" xmlns="http://www.w3.org/2000/svg">
<path d="M14.2231 23.56C12.8121 23.56 11.4328 23.1416 10.2596 22.3577C9.08637 21.5738 8.17196 20.4596 7.63197 19.156C7.09198 17.8525 6.95068 16.418 7.22593 15.0341C7.50118 13.6502 8.18062 12.3791 9.17833 11.3813C10.176 10.3836 11.4472 9.70409 12.8311 9.42879C14.215 9.1535 15.6494 9.29475 16.953 9.8347C18.2566 10.3746 19.3708 11.289 20.1548 12.4622C20.9387 13.6354 21.3571 15.0147 21.3571 16.4257C21.355 18.3171 20.6027 20.1305 19.2653 21.468C17.9279 22.8054 16.1146 23.5578 14.2231 23.56ZM14.2231 10.2292C12.9975 10.2291 11.7995 10.5926 10.7804 11.2734C9.76136 11.9543 8.96711 12.9221 8.49809 14.0544C8.02906 15.1867 7.90634 16.4326 8.14543 17.6347C8.38452 18.8367 8.9747 19.9409 9.84132 20.8075C10.7079 21.6741 11.8121 22.2643 13.0141 22.5034C14.2162 22.7425 15.4621 22.6197 16.5944 22.1507C17.7267 21.6817 18.6945 20.8875 19.3754 19.8684C20.0562 18.8494 20.4197 17.6513 20.4196 16.4257C20.4178 14.7829 19.7643 13.2078 18.6027 12.0462C17.441 10.8845 15.866 10.2311 14.2231 10.2292V10.2292Z" fill="black"/>
<path d="M15.8561 15.9298C16.0479 15.7172 16.048 15.3724 15.8563 15.1596C15.6647 14.9469 15.354 14.9468 15.1621 15.1594L13.7874 16.6833L12.8399 15.6202C12.6493 15.4063 12.3385 15.4043 12.1457 15.6158C11.953 15.8272 11.9512 16.172 12.1418 16.3859L13.4362 17.8384C13.5281 17.9414 13.6532 17.9996 13.7839 18C13.9144 18.0004 14.0399 17.9431 14.1323 17.8407L15.8561 15.9298Z" fill="black"/>
<path d="M13.0342 4.11484L10.6639 2.57561C10.5596 2.50926 10.4333 2.48678 10.3126 2.51305C10.1918 2.53933 10.0863 2.61224 10.019 2.71592C9.9517 2.81959 9.92808 2.94565 9.95327 3.06665C9.97845 3.18766 10.0504 3.29382 10.1535 3.36204L11.5312 4.25663C8.92537 4.85902 6.60235 6.33073 4.94455 8.42948C3.28675 10.5282 2.39299 13.1289 2.41041 15.8034C2.41132 15.9277 2.46158 16.0466 2.55013 16.1338C2.63868 16.2211 2.75827 16.2696 2.88259 16.2687C3.00691 16.2678 3.12578 16.2175 3.21304 16.129C3.3003 16.0404 3.34882 15.9208 3.34791 15.7965C3.33192 13.3255 4.16117 10.9232 5.69809 8.98828C7.23502 7.05332 9.38725 5.70192 11.7978 5.15825L10.8465 6.62315C10.7802 6.72743 10.7578 6.85367 10.7841 6.97441C10.8104 7.09516 10.8833 7.20064 10.9869 7.26791C11.0906 7.33518 11.2166 7.35881 11.3376 7.33365C11.4586 7.30849 11.5647 7.23658 11.633 7.13356L13.1722 4.76326C13.2375 4.65832 13.2597 4.53214 13.2339 4.41122C13.2082 4.29031 13.1366 4.18408 13.0342 4.11484Z" fill="black"/>
<path d="M19.6656 25.0758C17.5338 26.3256 15.0387 26.8089 12.5944 26.4453C10.1501 26.0817 7.90367 24.8933 6.22787 23.0772L7.97204 23.1686C8.09561 23.1741 8.21635 23.1305 8.30794 23.0474C8.39954 22.9643 8.45457 22.8483 8.46103 22.7248C8.46749 22.6013 8.42487 22.4802 8.34245 22.388C8.26002 22.2958 8.14449 22.2398 8.02102 22.2324L5.19867 22.0846C5.07578 22.0828 4.95674 22.1275 4.86541 22.2098C4.77407 22.292 4.71718 22.4057 4.70612 22.5281L4.55826 25.3505C4.55176 25.4746 4.59485 25.5963 4.67803 25.6886C4.76122 25.781 4.87769 25.8366 5.00183 25.843C5.12597 25.8495 5.2476 25.8065 5.33997 25.7233C5.43235 25.6401 5.48789 25.5236 5.49438 25.3995L5.58036 23.759C7.40509 25.7142 9.8411 26.9899 12.4875 27.3762C15.1338 27.7625 17.8328 27.2363 20.1403 25.8842C20.2467 25.8209 20.3238 25.718 20.3546 25.5981C20.3854 25.4781 20.3675 25.3509 20.3048 25.2441C20.2421 25.1373 20.1397 25.0597 20.0199 25.0281C19.9001 24.9966 19.7728 25.0138 19.6656 25.0758Z" fill="black"/>
<path d="M26.9088 18.4156L25.4453 19.1614C26.2264 16.6035 26.1133 13.8559 25.1246 11.3709C24.1359 8.88594 22.3306 6.81164 20.0058 5.4895C19.8977 5.42921 19.7702 5.41408 19.6511 5.44741C19.5319 5.48074 19.4308 5.55983 19.3697 5.66743C19.3086 5.77503 19.2926 5.90241 19.325 6.0218C19.3575 6.1412 19.4358 6.24292 19.543 6.30478C21.6909 7.52645 23.3566 9.44568 24.2639 11.7441C25.1711 14.0426 25.2654 16.5821 24.531 18.9415L23.7381 17.3854C23.6811 17.2757 23.583 17.1929 23.4652 17.1552C23.3474 17.1175 23.2195 17.1278 23.1093 17.184C22.9991 17.2401 22.9156 17.3375 22.8769 17.455C22.8382 17.5725 22.8475 17.7005 22.9027 17.8111L24.1858 20.3293C24.243 20.4394 24.3412 20.5226 24.4592 20.5609C24.5771 20.5992 24.7055 20.5896 24.8164 20.5341L27.3346 19.251C27.4442 19.1939 27.5269 19.0958 27.5646 18.9781C27.6023 18.8603 27.5919 18.7325 27.5358 18.6223C27.4796 18.5121 27.3823 18.4286 27.2649 18.3899C27.1474 18.3512 27.0195 18.3604 26.9088 18.4156Z" fill="black"/>
</svg>
