<svg width="30" height="30" viewBox="0 0 30 30" fill="none" xmlns="http://www.w3.org/2000/svg">
<path d="M25.7044 24.6816L22.3405 18.855C22.8984 18.3852 23.284 17.717 23.387 16.9598C23.457 16.4449 23.7218 15.9862 24.1327 15.6681C25.1978 14.8437 25.5854 13.3972 25.0753 12.1505C24.8784 11.6696 24.8784 11.1399 25.0753 10.6591C25.5854 9.41239 25.1978 7.96594 24.1327 7.14143C23.7218 6.82337 23.4569 6.36465 23.387 5.84977C23.2055 4.51511 22.1465 3.45617 20.8119 3.27472C20.297 3.2047 19.8383 2.93989 19.5203 2.52901C18.6957 1.46383 17.2494 1.07627 16.0026 1.58642C15.5217 1.78324 14.992 1.78324 14.5112 1.58642C13.2646 1.07622 11.8181 1.46383 10.9935 2.52901C10.6755 2.93989 10.2168 3.2047 9.70189 3.27472C8.36717 3.45622 7.30828 4.51511 7.12684 5.84983C7.05682 6.3647 6.792 6.82342 6.38112 7.14148C5.31595 7.966 4.92839 9.4125 5.43854 10.6591C5.63535 11.14 5.63535 11.6697 5.43854 12.1505C4.92834 13.3972 5.31595 14.8437 6.38112 15.6682C6.792 15.9862 7.05682 16.445 7.12684 16.9598C7.23114 17.727 7.62572 18.4026 8.1955 18.8733L4.84206 24.6816C4.73702 24.8635 4.75188 25.0908 4.87982 25.2575C5.00771 25.4241 5.22333 25.4974 5.42638 25.443L8.34936 24.6598L9.1292 27.5702C9.18359 27.7731 9.35485 27.9233 9.56315 27.9507C9.5859 27.9538 9.6086 27.9552 9.63109 27.9552C9.81487 27.9552 9.98722 27.8576 10.0808 27.6955L13.6993 21.428C13.9737 21.3985 14.2469 21.3313 14.5111 21.2231C14.992 21.0263 15.5218 21.0263 16.0026 21.2231C16.278 21.3359 16.5633 21.4046 16.8495 21.4321L20.4656 27.6955C20.5592 27.8576 20.7315 27.9552 20.9153 27.9552C20.9379 27.9552 20.9605 27.9538 20.9833 27.9507C21.1916 27.9233 21.3629 27.7731 21.4173 27.5702L22.1972 24.6598L25.1201 25.443C25.3229 25.4974 25.5388 25.4242 25.6666 25.2575C25.7945 25.0908 25.8094 24.8635 25.7044 24.6816ZM9.80806 26.09L9.21834 23.8892C9.18265 23.7561 9.09564 23.6427 8.97633 23.5738C8.85701 23.5049 8.71531 23.4863 8.58217 23.5219L6.36876 24.1149L9.09809 19.3876C9.29106 19.4567 9.49307 19.5065 9.70184 19.5349C10.2167 19.6049 10.6754 19.8697 10.9935 20.2806C11.3972 20.8021 11.95 21.1608 12.5554 21.3316L9.80806 26.09ZM14.1176 20.2617C13.3016 20.5957 12.3548 20.342 11.815 19.6448C11.3291 19.0171 10.6283 18.6124 9.84178 18.5055C8.96812 18.3867 8.27492 17.6936 8.15617 16.8198C8.04922 16.0333 7.64462 15.3326 7.01692 14.8466C6.31967 14.3069 6.06598 13.36 6.39993 12.544C6.70063 11.8094 6.70063 11.0002 6.39993 10.2656C6.06598 9.44959 6.31967 8.50269 7.01692 7.96298C7.64462 7.47709 8.04922 6.77636 8.15617 5.98976C8.27497 5.11611 8.96812 4.42291 9.84178 4.30411C10.6283 4.19721 11.3291 3.79261 11.815 3.16491C12.1956 2.67315 12.7786 2.40206 13.3756 2.40206C13.6251 2.40206 13.877 2.44948 14.1175 2.54792C14.8522 2.84857 15.6614 2.84857 16.396 2.54792C17.212 2.21391 18.1589 2.46766 18.6986 3.16491C19.1845 3.79261 19.8853 4.19721 20.6718 4.30411C21.5454 4.42291 22.2386 5.11606 22.3574 5.98976C22.4644 6.77636 22.869 7.47709 23.4967 7.96298C24.1939 8.50269 24.4476 9.44953 24.1137 10.2656C23.813 11.0002 23.813 11.8094 24.1137 12.544C24.4476 13.36 24.1939 14.3069 23.4967 14.8466C22.869 15.3325 22.4644 16.0333 22.3574 16.8198C22.2386 17.6935 21.5454 18.3867 20.6718 18.5055C19.8852 18.6124 19.1845 19.017 18.6986 19.6447C18.1588 20.342 17.212 20.5956 16.396 20.2616C15.6614 19.961 14.8523 19.961 14.1176 20.2617ZM21.9642 23.5219C21.687 23.4476 21.4024 23.6121 21.3281 23.8892L20.7383 26.09L17.9863 21.3233C18.5807 21.1494 19.1228 20.794 19.5202 20.2806C19.8383 19.8697 20.297 19.6049 20.8118 19.5349C21.0303 19.5052 21.2413 19.4515 21.4424 19.3774L24.1776 24.1149L21.9642 23.5219Z" fill="black"/>
<path d="M12.8962 9.48393L11.2801 11.1C11.1827 11.1974 11.1279 11.3296 11.1279 11.4673C11.1279 11.6051 11.1827 11.7372 11.2801 11.8346L14.3112 14.8658C14.4086 14.9632 14.5407 15.018 14.6785 15.018C14.8163 15.018 14.9484 14.9632 15.0458 14.8658L19.2663 10.6453C19.4691 10.4425 19.4691 10.1135 19.2663 9.91071L17.6502 8.29455C17.5528 8.19716 17.4207 8.14241 17.2829 8.14241C17.1451 8.14241 17.013 8.19716 16.9156 8.29455L14.6786 10.5317L13.6309 9.48398C13.5335 9.38658 13.4014 9.33183 13.2636 9.33183C13.1258 9.33178 12.9936 9.38653 12.8962 9.48393ZM14.3111 11.6336C14.4085 11.731 14.5407 11.7857 14.6784 11.7857C14.8162 11.7857 14.9484 11.731 15.0457 11.6336L17.2828 9.39645L18.1643 10.278L14.6784 13.7639L12.382 11.4674L13.2635 10.5859L14.3111 11.6336Z" fill="black"/>
<path d="M22.0261 11.5802C22.0261 10.2003 21.6125 8.87322 20.8302 7.74238C20.0663 6.6382 19.0051 5.79384 17.7615 5.30068C17.4947 5.19497 17.1929 5.3254 17.0871 5.59208C16.9813 5.85877 17.1118 6.16067 17.3785 6.26643C19.5707 7.13572 20.9872 9.2215 20.9872 11.5802C20.9872 14.7308 18.424 17.2941 15.2733 17.2941C12.1227 17.2941 9.5594 14.7308 9.5594 11.5802C9.5594 9.22145 10.9759 7.13567 13.1681 6.26638C13.4348 6.16062 13.5653 5.85872 13.4596 5.59203C13.3538 5.32535 13.0518 5.19486 12.7852 5.30062C11.5415 5.79384 10.4803 6.63814 9.71638 7.74233C8.93404 8.87316 8.52051 10.2002 8.52051 11.5801C8.52051 15.3036 11.5498 18.3329 15.2733 18.3329C18.9968 18.3329 22.0261 15.3036 22.0261 11.5802Z" fill="black"/>
</svg>
