<svg width="30" height="30" viewBox="0 0 30 30" fill="none" xmlns="http://www.w3.org/2000/svg">
<path d="M13.7544 2.77864H27.2435C27.4859 2.77864 27.6824 2.58217 27.6824 2.33977C27.6824 2.09737 27.4859 1.90084 27.2435 1.90084H13.7544C13.512 1.90084 13.3154 2.09731 13.3154 2.33977C13.3154 2.58217 13.512 2.77864 13.7544 2.77864Z" fill="black"/>
<path d="M27.2435 4.07728H13.7544C13.512 4.07728 13.3154 4.27374 13.3154 4.5162C13.3154 4.75861 13.512 4.95507 13.7544 4.95507H27.2435C27.4859 4.95507 27.6824 4.75861 27.6824 4.5162C27.6824 4.2738 27.4859 4.07728 27.2435 4.07728Z" fill="black"/>
<path d="M13.7544 7.1316H22.9077C23.1501 7.1316 23.3466 6.93514 23.3466 6.69273C23.3466 6.45033 23.1502 6.25381 22.9077 6.25381H13.7544C13.512 6.25381 13.3154 6.45027 13.3154 6.69273C13.3154 6.93514 13.512 7.1316 13.7544 7.1316Z" fill="black"/>
<path d="M27.2435 12.3846H13.7544C13.512 12.3846 13.3154 12.5811 13.3154 12.8235C13.3154 13.0659 13.512 13.2623 13.7544 13.2623H27.2435C27.4859 13.2623 27.6824 13.0659 27.6824 12.8235C27.6824 12.5811 27.4859 12.3846 27.2435 12.3846Z" fill="black"/>
<path d="M27.2435 14.561H13.7544C13.512 14.561 13.3154 14.7575 13.3154 15C13.3154 15.2424 13.512 15.4389 13.7544 15.4389H27.2435C27.4859 15.4389 27.6824 15.2424 27.6824 15C27.6824 14.7575 27.4859 14.561 27.2435 14.561Z" fill="black"/>
<path d="M13.7544 17.6154H22.9077C23.1501 17.6154 23.3466 17.4189 23.3466 17.1765C23.3466 16.9341 23.1502 16.7377 22.9077 16.7377H13.7544C13.512 16.7377 13.3154 16.9341 13.3154 17.1765C13.3154 17.4189 13.512 17.6154 13.7544 17.6154Z" fill="black"/>
<path d="M11.6459 21.619C11.3985 21.4015 11.0812 21.2935 10.7524 21.3143C10.4235 21.3354 10.1227 21.4832 9.90504 21.7306L9.68221 21.9839C8.90449 21.3495 7.9132 20.9676 6.83361 20.9676C4.34338 20.9676 2.31738 22.9936 2.31738 25.4838C2.31738 27.9741 4.34332 30 6.83361 30C9.32391 30 11.3498 27.9741 11.3498 25.4838C11.3498 24.9935 11.2696 24.5221 11.1241 24.0799L11.7574 23.3599C11.975 23.1125 12.0833 22.7952 12.0622 22.4664C12.0411 22.1376 11.8932 21.8366 11.6459 21.619ZM6.83361 29.1222C4.82736 29.1222 3.19523 27.49 3.19523 25.4838C3.19523 23.4776 4.82742 21.8454 6.83361 21.8454C7.69131 21.8454 8.47992 22.1446 9.10254 22.643L7.24353 24.7564L6.5765 23.9782C6.36211 23.7281 6.06311 23.5764 5.73463 23.551C5.40656 23.5256 5.08746 23.6299 4.83727 23.8443C4.32088 24.287 4.26088 25.0672 4.7035 25.5836L6.29496 27.4403C6.52746 27.7116 6.86566 27.8686 7.22297 27.8711C7.22625 27.8711 7.22941 27.8711 7.23152 27.8711C7.58602 27.8711 7.92351 27.7185 8.15766 27.4523L10.4211 24.8791C10.4544 25.0758 10.4721 25.2777 10.4721 25.4838C10.472 27.49 8.8398 29.1222 6.83361 29.1222ZM11.0982 22.7801L7.49848 26.8726C7.43133 26.9488 7.33471 26.9928 7.23316 26.9933C7.23182 26.9933 7.23041 26.9933 7.22906 26.9933C7.12605 26.9926 7.0285 26.9474 6.96141 26.8691L5.36988 25.0124C5.24227 24.8635 5.25961 24.6385 5.4085 24.5108C5.47354 24.4551 5.55457 24.4252 5.6393 24.4252C5.64855 24.4252 5.65781 24.4256 5.66713 24.4263C5.76187 24.4336 5.84807 24.4774 5.90994 24.5495L6.90592 25.7115C6.98865 25.808 7.10918 25.8639 7.23633 25.8647C7.365 25.8666 7.48471 25.8112 7.56867 25.7157L10.564 22.3103C10.6268 22.239 10.7136 22.1964 10.8084 22.1903C10.903 22.184 10.9947 22.2155 11.066 22.2781C11.1374 22.341 11.18 22.4277 11.1861 22.5225C11.1922 22.6173 11.161 22.7088 11.0982 22.7801Z" fill="black"/>
<path d="M27.2435 22.8685H13.7544C13.512 22.8685 13.3154 23.0649 13.3154 23.3073C13.3154 23.5497 13.512 23.7462 13.7544 23.7462H27.2435C27.4859 23.7462 27.6824 23.5497 27.6824 23.3073C27.6824 23.0649 27.4859 22.8685 27.2435 22.8685Z" fill="black"/>
<path d="M27.2435 25.0449H13.7544C13.512 25.0449 13.3154 25.2414 13.3154 25.4838C13.3154 25.7262 13.512 25.9227 13.7544 25.9227H27.2435C27.4859 25.9227 27.6824 25.7263 27.6824 25.4838C27.6824 25.2414 27.4859 25.0449 27.2435 25.0449Z" fill="black"/>
<path d="M22.9077 27.2215H13.7544C13.512 27.2215 13.3154 27.4179 13.3154 27.6603C13.3154 27.9027 13.512 28.0992 13.7544 28.0992H22.9077C23.1501 28.0992 23.3466 27.9028 23.3466 27.6603C23.3466 27.4179 23.1501 27.2215 22.9077 27.2215Z" fill="black"/>
<path d="M11.6459 0.651387C11.3985 0.433828 11.0812 0.325781 10.7524 0.346582C10.4235 0.367676 10.1227 0.515508 9.90504 0.762891L9.68279 1.01561C8.90508 0.381211 7.9132 0 6.83361 0C5.71535 0 4.64221 0.411797 3.81193 1.15963C3.63182 1.32188 3.61734 1.59938 3.77959 1.77955C3.94178 1.95967 4.21934 1.97414 4.39945 1.81195C5.06818 1.20961 5.93268 0.877852 6.83361 0.877852C7.69131 0.877852 8.47992 1.17697 9.10248 1.67543L7.24353 3.78879L6.57645 3.01055C6.36205 2.76041 6.06305 2.60871 5.73457 2.5834C5.4065 2.55791 5.0874 2.66227 4.83721 2.87666C4.32082 3.31934 4.26082 4.09951 4.70344 4.6159L6.2949 6.47256C6.5274 6.74391 6.86561 6.90088 7.22291 6.90334C7.22619 6.9034 7.22936 6.9034 7.23146 6.9034C7.58596 6.9034 7.92346 6.75076 8.1576 6.48457L10.421 3.91137C10.4542 4.10813 10.472 4.31004 10.472 4.51611C10.472 6.52231 8.8398 8.15449 6.83361 8.15449C4.82742 8.15449 3.19523 6.52231 3.19523 4.51611C3.19523 4.0858 3.26947 3.6648 3.41596 3.2649C3.49934 3.03727 3.38238 2.7852 3.15475 2.70182C2.92723 2.6185 2.67504 2.73539 2.59166 2.96303C2.40967 3.45996 2.31738 3.9825 2.31738 4.51611C2.31738 7.00635 4.34332 9.03229 6.83361 9.03229C9.32391 9.03229 11.3498 7.00635 11.3498 4.51611C11.3498 4.02557 11.2706 3.55336 11.1253 3.11086L11.7574 2.39221C11.975 2.14482 12.0833 1.82754 12.0622 1.49871C12.0411 1.16994 11.8932 0.869004 11.6459 0.651387ZM11.0982 1.81248L7.49848 5.9049C7.43133 5.98119 7.33471 6.02514 7.23316 6.02566C7.23182 6.02566 7.23041 6.02561 7.22906 6.02561C7.12605 6.02496 7.0285 5.97973 6.96141 5.90145L5.36988 4.04473C5.24227 3.89584 5.25961 3.67084 5.4085 3.54316C5.47354 3.48744 5.55457 3.45756 5.6393 3.45756C5.64855 3.45756 5.65781 3.45791 5.66713 3.45867C5.76187 3.46594 5.84807 3.50971 5.90994 3.58184L6.90592 4.74381C6.98865 4.84031 7.10918 4.89627 7.23633 4.89709C7.365 4.89615 7.48471 4.84354 7.56867 4.74803L10.564 1.34268C10.6268 1.27137 10.7136 1.22871 10.8084 1.22268C10.903 1.21658 10.9947 1.24781 11.066 1.31051C11.1374 1.37332 11.18 1.46004 11.1861 1.5549C11.1922 1.64965 11.161 1.74111 11.0982 1.81248Z" fill="black"/>
<path d="M11.6459 11.1353C11.3985 10.9177 11.0813 10.8094 10.7524 10.8305C10.4235 10.8516 10.1227 10.9994 9.90504 11.2468L9.68191 11.5005C8.90426 10.866 7.9132 10.4839 6.83361 10.4839C4.34338 10.4839 2.31738 12.5098 2.31738 15.0001C2.31738 17.4903 4.34332 19.5162 6.83361 19.5162C9.32391 19.5162 11.3498 17.4903 11.3498 15.0001C11.3498 14.5096 11.2702 14.0376 11.1247 13.5953L11.7574 12.8761C11.975 12.6287 12.0832 12.3114 12.0622 11.9826C12.0411 11.6538 11.8932 11.3529 11.6459 11.1353ZM11.0982 12.2964L9.23098 14.4191C9.0709 14.601 9.08865 14.8784 9.27064 15.0385C9.45264 15.1987 9.72996 15.1809 9.8901 14.9988L10.4209 14.3954C10.4541 14.5921 10.472 14.794 10.472 15.0001C10.472 17.0062 8.8398 18.6384 6.83361 18.6384C4.82742 18.6384 3.19518 17.0062 3.19518 15.0001C3.19518 12.9939 4.82736 11.3617 6.83355 11.3617C7.69125 11.3617 8.47975 11.661 9.10236 12.1593L7.24348 14.2726L6.57645 13.4944C6.36205 13.2443 6.06305 13.0926 5.73457 13.0673C5.4065 13.0415 5.0874 13.1461 4.83721 13.3605C4.32082 13.8032 4.26082 14.5834 4.70344 15.0998L6.2949 16.9564C6.5274 17.2278 6.86561 17.3848 7.22291 17.3872C7.22619 17.3873 7.22936 17.3873 7.23147 17.3873C7.58596 17.3873 7.92346 17.2346 8.1576 16.9685L8.56518 16.5052C8.72525 16.3232 8.70756 16.0458 8.52551 15.8858C8.34352 15.7255 8.06613 15.7434 7.90605 15.9254L7.49848 16.3887C7.43139 16.465 7.33494 16.5089 7.23305 16.5095C7.23176 16.5095 7.23041 16.5094 7.22906 16.5094C7.12605 16.5088 7.0285 16.4636 6.96141 16.3852L5.36988 14.5285C5.24227 14.3796 5.25961 14.1546 5.4085 14.0269C5.48068 13.9651 5.57279 13.9348 5.66719 13.9424C5.76193 13.9497 5.84812 13.9935 5.91 14.0656L6.90598 15.2276C6.98871 15.3241 7.10924 15.38 7.23639 15.3809H7.2392C7.36535 15.3809 7.48541 15.3266 7.56873 15.2319L10.5641 11.8265C10.6269 11.7552 10.7136 11.7125 10.8084 11.7065C10.9031 11.7003 10.9948 11.7316 11.0661 11.7943C11.1374 11.8571 11.18 11.9439 11.1861 12.0387C11.1922 12.1335 11.161 12.225 11.0982 12.2964Z" fill="black"/>
</svg>
