<svg width="30" height="30" viewBox="0 0 30 30" fill="none" xmlns="http://www.w3.org/2000/svg">
<g clip-path="url(#clip0_18_640)">
<path d="M27.9969 4.99374C26.7907 5.11008 25.8887 6.15321 25.9478 7.36359L26.0383 11.0747C25.0461 11.1733 24.1776 11.7835 23.7484 12.6835L22.3921 15.531C22.1813 15.9725 21.8736 16.3612 21.4924 16.6676L21.2105 16.8937C19.7771 18.0376 18.9782 19.799 19.0623 21.6309L18.5081 21.3672C18.257 21.2475 17.9562 21.3542 17.8367 21.6053L16.3498 24.7273C16.2303 24.9787 16.3368 25.2793 16.5879 25.3988L23.4399 28.662C23.5605 28.7196 23.6989 28.7269 23.8249 28.6822C23.9508 28.6374 24.0539 28.5447 24.1112 28.4239L25.5983 25.3014C25.7178 25.0503 25.6113 24.7497 25.3602 24.6302L25.0677 24.491L24.9947 23.5142C24.9654 23.1328 25.0857 22.7547 25.3299 22.46L28.8782 18.1663C28.8853 18.1577 28.8922 18.1488 28.8988 18.1397C29.6303 17.1185 30.016 15.8901 29.9995 14.6343C29.999 14.6104 29.9968 14.5865 29.9931 14.5629L28.5434 5.4163C28.5016 5.15312 28.262 4.96791 27.9969 4.99374ZM23.4183 27.5357L17.4761 24.7057L18.5298 22.493L24.472 25.3231L23.4183 27.5357ZM28.0906 17.5378L24.5534 21.8183C24.1429 22.3132 23.941 22.9483 23.9899 23.5893L24.0202 23.9919L20.1253 22.1371C19.8486 20.4503 20.5046 18.7455 21.8407 17.6795L22.1226 17.4535C22.6224 17.0518 23.0255 16.5427 23.302 15.9642L24.6579 13.1167C25.0126 12.3748 25.8157 11.9572 26.6269 12.093L24.6447 16.2554C24.5268 16.5063 24.6336 16.8051 24.884 16.9244C25.1341 17.0435 25.4337 16.9382 25.5542 16.6885L27.7832 12.0081C27.9027 11.7567 27.7962 11.4562 27.5448 11.3366C27.3852 11.2609 27.2189 11.2001 27.048 11.1549L26.9547 7.33284C26.9547 7.32842 26.9547 7.32399 26.9543 7.31981C26.9284 6.82395 27.1955 6.35908 27.6366 6.13132L28.9926 14.6842C28.9985 15.7066 28.6831 16.7048 28.0906 17.5378Z" fill="black"/>
<path d="M1.12185 18.1663L4.67011 22.46C4.91435 22.7547 5.03463 23.1328 5.00536 23.5142L4.93231 24.491L4.63986 24.6302C4.38873 24.7497 4.28223 25.0503 4.40176 25.3014L5.88886 28.4239C5.94616 28.5447 6.04922 28.6374 6.17516 28.6822C6.30109 28.7269 6.43957 28.7196 6.56033 28.662L13.4121 25.3988C13.6632 25.2793 13.7697 24.9787 13.6502 24.7273L12.1631 21.6051C12.0436 21.354 11.743 21.2472 11.4919 21.367L10.9377 21.6307C11.0216 19.7987 10.223 18.0374 8.78949 16.8934L8.50762 16.6674C8.12613 16.3609 7.81868 15.9725 7.60764 15.531L6.2514 12.6835C5.8222 11.7835 4.95371 11.1733 3.96149 11.0747L4.05225 7.36359C4.11128 6.15345 3.20934 5.11008 2.00314 4.99374C1.73799 4.96791 1.49842 5.15312 1.45661 5.4163L0.006902 14.5629C0.00296659 14.5865 0.00099889 14.6104 0.000506965 14.6343C-0.0159725 15.8901 0.369697 17.1185 1.10119 18.1397C1.10783 18.1488 1.11472 18.1577 1.12185 18.1663ZM12.5239 24.7059L6.58173 27.5357L5.52803 25.3231L11.4702 22.493L12.5239 24.7059ZM2.36347 6.13107C2.80448 6.35883 3.0716 6.82395 3.04577 7.31956C3.04577 7.32399 3.04553 7.32842 3.04528 7.33284L2.95206 11.1549C2.78112 11.1999 2.6146 11.2606 2.45497 11.3366C2.20384 11.4562 2.09709 11.757 2.21688 12.0081L4.44579 16.6888C4.56631 16.9384 4.8659 17.0437 5.11604 16.9244C5.36618 16.8054 5.47318 16.5065 5.35536 16.2556L3.37315 12.093C4.18433 11.9569 4.98765 12.3746 5.34208 13.1167L6.69832 15.9642C6.97478 16.5427 7.37767 17.0518 7.87746 17.4535L8.15934 17.6795C9.49541 18.7455 10.1514 20.4503 9.87468 22.1371L5.97986 23.9919L6.01011 23.5893C6.05906 22.9483 5.85713 22.3132 5.44686 21.8183L1.90942 17.5378C1.31715 16.7048 1.00158 15.7066 1.00772 14.6842L2.36347 6.13107Z" fill="black"/>
<path d="M21.0076 12.2674C21.2165 12.2007 21.3586 12.0071 21.3599 11.7877V3.80378C21.3586 3.58462 21.2165 3.39105 21.0076 3.3244L15.1564 1.43762C15.0556 1.40515 14.9471 1.40515 14.8463 1.43762L8.99334 3.32415C8.78427 3.39081 8.6421 3.58438 8.64062 3.80378V11.7877C8.64185 12.0071 8.78402 12.2005 8.99284 12.2674L14.8441 14.1539C14.8942 14.1699 14.9469 14.178 14.9995 14.178C15.0526 14.178 15.1055 14.1699 15.1559 14.1539L21.0076 12.2674ZM15.504 12.9829V6.05655L20.3524 4.49493V11.4212L15.504 12.9829ZM15.0002 2.44631L19.2089 3.80378L15.0002 5.16075L10.7916 3.80378L15.0002 2.44631ZM9.64809 4.49518L14.4965 6.0568V12.9831L9.64809 11.4215V4.49518Z" fill="black"/>
</g>
<defs>
<clipPath id="clip0_18_640">
<rect width="30" height="30" fill="white"/>
</clipPath>
</defs>
</svg>
