<svg width="30" height="30" viewBox="0 0 30 30" fill="none" xmlns="http://www.w3.org/2000/svg">
<g clip-path="url(#clip0_18_606)">
<path d="M17.7565 3.60534C17.4413 3.52947 17.1254 3.72312 17.0495 4.03765C16.9737 4.35224 17.1673 4.66876 17.4818 4.74458C22.231 5.88944 25.5478 10.1055 25.5478 14.9972C25.5478 20.8128 20.8165 25.5441 15.0009 25.5441C9.18535 25.5441 4.4541 20.8128 4.4541 14.9972C4.4541 10.1057 7.77073 5.88962 12.5196 4.74464C12.8342 4.66876 13.0277 4.35224 12.9519 4.03771C12.876 3.72312 12.5594 3.5297 12.245 3.6054C9.73249 4.2112 7.45619 5.66356 5.83544 7.69495C4.16511 9.78844 3.28223 12.3135 3.28223 14.9972C3.28223 21.459 8.53924 26.716 15.0009 26.716C21.4626 26.716 26.7196 21.459 26.7196 14.9972C26.7196 12.3135 25.8367 9.78832 24.1663 7.69477C22.5455 5.66345 20.2691 4.21109 17.7565 3.60534Z" fill="black"/>
<path d="M29.6469 13.5906L28.9615 12.3117L29.0758 10.7306C29.1857 9.71721 28.7815 8.72815 27.993 8.08315L26.8551 7.1514L26.4075 5.80304C26.1569 4.77209 25.3739 3.94346 24.358 3.63661L22.9535 3.21227L21.8778 1.96892C21.2413 1.22027 20.278 0.830856 19.3007 0.926891L17.8429 1.07214L16.4099 0.35326C15.5268 -0.117539 14.4739 -0.117949 13.5906 0.353202L12.3118 1.03863L10.7307 0.924254C9.71689 0.814333 8.72818 1.21863 8.08324 2.007L7.15143 3.14489L5.80313 3.59249C4.77212 3.84315 3.94349 4.62613 3.63664 5.64197L3.21236 7.04652L1.96901 8.12223C1.22041 8.75868 0.830768 9.72184 0.92692 10.6993L1.07217 12.1571L0.35329 13.5901C-0.117568 14.4733 -0.117919 15.5262 0.353172 16.4095L1.03866 17.6883L0.924283 19.2694C0.814421 20.2829 1.21866 21.2718 2.00703 21.9169L3.14492 22.8487L3.59251 24.197C3.84312 25.228 4.6261 26.0566 5.64206 26.3635L7.04654 26.7877L8.12226 28.0311C8.75876 28.7797 9.72169 29.1694 10.6993 29.0732L12.1571 28.9279L13.59 29.6467C14.0317 29.8822 14.5159 30.0001 15.0001 30.0001C15.484 30.0001 15.9679 29.8824 16.4094 29.6469L17.6883 28.9615L19.2693 29.0759C20.2827 29.1855 21.2718 28.7815 21.9169 27.9931L22.8486 26.8552L24.197 26.4077C25.2279 26.157 26.0565 25.374 26.3634 24.3581L26.7877 22.9537L28.0311 21.8779C28.7797 21.2415 29.1693 20.2783 29.0732 19.3008L28.9279 17.8431L29.6467 16.4101C30.1176 15.5269 30.118 14.4739 29.6469 13.5906ZM28.6101 15.8633C28.6076 15.8681 28.605 15.8729 28.6026 15.8777L27.8042 17.4694C27.7545 17.5685 27.7339 17.6798 27.7449 17.7902L27.907 19.4162C27.9655 20.0107 27.7281 20.5973 27.2682 20.9883L25.8926 22.1785C25.8087 22.2511 25.7471 22.3459 25.7151 22.4521L25.2416 24.0192C25.0529 24.644 24.5401 25.1244 23.9035 25.2729C23.8861 25.2769 23.8689 25.2818 23.8519 25.2874L22.3183 25.7964C22.213 25.8314 22.1198 25.8955 22.0495 25.9813L21.0101 27.2508C20.6153 27.7334 20.0088 27.9798 19.3882 27.91C19.3804 27.9091 19.3726 27.9084 19.365 27.9078L17.6035 27.7804C17.4926 27.7724 17.3822 27.796 17.2845 27.8484L15.8569 28.6135C15.3185 28.9006 14.6755 28.8994 14.1368 28.6102C14.132 28.6076 14.1272 28.6051 14.1224 28.6027L12.5307 27.8043C12.4489 27.7633 12.3589 27.7421 12.268 27.7421C12.2487 27.7421 12.2293 27.743 12.2099 27.745L10.5839 27.907C9.9894 27.9657 9.40282 27.7281 9.01177 27.2683L7.82162 25.8926C7.74908 25.8087 7.65416 25.7471 7.54793 25.7151L5.98085 25.2417C5.35595 25.0529 4.8756 24.5402 4.72718 23.9035C4.72314 23.8861 4.71827 23.8689 4.71265 23.852L4.20365 22.3183C4.16872 22.213 4.10462 22.1198 4.01878 22.0496L2.74935 21.0101C2.26678 20.6153 2.02033 20.0089 2.09018 19.3882C2.09106 19.3805 2.09176 19.3727 2.09234 19.3649L2.21973 17.6034C2.22775 17.4928 2.20414 17.3822 2.15176 17.2844L1.38659 15.8569C1.09948 15.3186 1.10071 14.6756 1.38987 14.1368C1.39245 14.1321 1.39491 14.1272 1.39731 14.1224L2.1957 12.5308C2.24545 12.4316 2.26602 12.3203 2.255 12.21L2.09299 10.5839C2.03451 9.98932 2.27188 9.40279 2.73178 9.01174L4.10743 7.82159C4.19134 7.74899 4.25286 7.65413 4.28497 7.54796L4.75841 5.98082C4.94714 5.35597 5.45989 4.87563 6.09657 4.72715C6.11397 4.72311 6.13114 4.71824 6.14813 4.71262L7.6817 4.20356C7.78699 4.16864 7.88015 4.10453 7.95041 4.01869L8.98997 2.74921C9.38478 2.26669 9.99128 2.02036 10.6118 2.09009C10.6196 2.09097 10.6273 2.09167 10.635 2.09226L12.3965 2.21964C12.5068 2.22749 12.6177 2.20405 12.7155 2.15167L14.143 1.38656C14.6813 1.09945 15.3244 1.10062 15.8631 1.38984C15.8679 1.39236 15.8727 1.39488 15.8775 1.39728L17.4692 2.19567C17.5684 2.24542 17.6796 2.26605 17.79 2.25497L19.416 2.09296C20.0105 2.03437 20.5971 2.27185 20.9882 2.73175L22.1783 4.10741C22.2509 4.19131 22.3458 4.25283 22.452 4.28494L24.0191 4.75838C24.6439 4.94711 25.1243 5.45992 25.2728 6.09654C25.2768 6.11394 25.2817 6.13111 25.2873 6.1481L25.7964 7.68167C25.8313 7.78696 25.8954 7.88013 25.9812 7.95038L27.2507 8.98989C27.7333 9.38469 27.9797 9.99096 27.9098 10.6118C27.9089 10.6195 27.9082 10.6272 27.9077 10.635L27.7803 12.3965C27.7723 12.5071 27.7959 12.6178 27.8482 12.7156L28.6134 14.1431C28.9006 14.6815 28.8993 15.3245 28.6101 15.8633Z" fill="black"/>
<path d="M12.457 11.8107C12.363 11.6127 12.1617 11.4754 11.9279 11.4754H8.83203C8.50842 11.4754 8.24609 11.7377 8.24609 12.0614V20.9304C8.24609 21.254 8.50842 21.5164 8.83203 21.5164H11.9279C12.1708 21.5164 12.3791 21.3687 12.4679 21.1581C12.9146 21.2208 13.3747 21.3478 13.8538 21.4805C14.574 21.6799 15.3187 21.8861 16.0924 21.8861H19.475C20.5206 21.8861 21.3679 21.3317 21.7416 20.4031C21.9236 19.9506 21.9555 19.4811 21.8491 19.088C22.0436 18.9131 22.2081 18.6953 22.3324 18.4411C22.5844 17.9259 22.6347 17.3466 22.4919 16.8587C22.7581 16.6015 22.9568 16.2618 23.0606 15.8613C23.1577 15.4869 23.156 15.1175 23.0696 14.7974C23.5981 14.4865 23.9541 13.9216 23.9541 13.2852C23.9541 12.786 23.7597 12.3261 23.4068 11.9901C23.0679 11.6675 22.6165 11.4898 22.1358 11.4898L17.3679 11.4899C17.0057 11.0355 16.893 10.4189 17.0992 9.92251C17.5225 8.9038 17.4963 8.04148 17.0143 7.1266C16.6566 6.44756 15.6946 5.77151 14.886 5.88694C14.3973 5.95678 14.0437 6.30219 13.94 6.81102C13.9095 6.96072 13.9011 7.12244 13.8914 7.30971C13.8675 7.77166 13.8347 8.40435 13.4359 9.16835C13.1656 9.68626 13.0754 10.2189 12.9959 10.6889C12.8819 11.3622 12.8266 11.6865 12.457 11.8107ZM9.41796 12.6473H11.342V20.3445H9.41796V12.6473ZM14.1513 10.8845C14.2196 10.4813 14.2901 10.0644 14.4748 9.71064C14.9918 8.72017 15.0356 7.87519 15.0618 7.37035C15.0687 7.23588 15.0753 7.10885 15.0883 7.04498C15.0884 7.04457 15.0885 7.0441 15.0886 7.04369C15.2919 7.04651 15.7921 7.3209 15.9775 7.67293C16.2985 8.28207 16.3092 8.76998 16.0171 9.47298C15.7537 10.1068 15.7735 10.8424 16.0341 11.4963C15.749 11.536 15.5294 11.78 15.5294 12.076C15.5294 12.3996 15.7918 12.6619 16.1153 12.6619L22.1358 12.6618C22.3143 12.6618 22.4788 12.7247 22.5988 12.8389C22.6825 12.9186 22.7822 13.0607 22.7822 13.2853C22.7822 13.5996 22.4941 13.8713 22.153 13.8788L20.6449 13.9116C20.3214 13.9186 20.0648 14.1865 20.0719 14.5101C20.0788 14.8293 20.3397 15.0833 20.6574 15.0833C20.6617 15.0833 20.6661 15.0833 20.6704 15.0832L21.9265 15.0559C21.9674 15.172 21.9887 15.3934 21.9025 15.647C21.8291 15.8628 21.632 16.2247 21.1363 16.2247C20.8128 16.2247 20.5504 16.487 20.5504 16.8106C20.5504 17.1342 20.8128 17.3965 21.1363 17.3965C21.2252 17.3965 21.3123 17.391 21.3977 17.3802C21.4049 17.546 21.3708 17.7402 21.2798 17.9262C21.1722 18.1461 20.9596 18.4082 20.5575 18.4082C20.234 18.4082 19.9716 18.6705 19.9716 18.9941C19.9716 19.3178 20.234 19.5801 20.5575 19.5801C20.6182 19.5801 20.6782 19.5774 20.7374 19.5721C20.7359 19.6845 20.713 19.8251 20.6491 19.9788C20.5572 20.1999 20.2588 20.7142 19.4751 20.7142H16.0925C15.4781 20.7142 14.841 20.5379 14.1666 20.3511C13.63 20.2025 13.0797 20.0503 12.514 19.9823V12.9966C13.8332 12.7576 14.015 11.6896 14.1513 10.8845Z" fill="black"/>
<path d="M15.0002 4.45314C15.3238 4.45314 15.5861 4.19081 15.5861 3.86719C15.5861 3.54358 15.3238 3.28125 15.0002 3.28125H14.9998C14.6762 3.28125 14.4141 3.54358 14.4141 3.86719C14.4141 4.19081 14.6766 4.45314 15.0002 4.45314Z" fill="black"/>
</g>
<defs>
<clipPath id="clip0_18_606">
<rect width="30" height="30" fill="white"/>
</clipPath>
</defs>
</svg>
