<svg width="30" height="30" viewBox="0 0 30 30" fill="none" xmlns="http://www.w3.org/2000/svg">
<g clip-path="url(#clip0_18_628)">
<path d="M29.9223 19.5598L26.7576 14.0393C26.6532 13.8572 26.4592 13.7448 26.2492 13.7448H21.287V9.5783C21.287 9.25468 21.0246 8.99224 20.7009 8.99224H18.5846C18.2609 8.99224 17.9986 9.25468 17.9986 9.5783C17.9986 9.90192 18.2609 10.1644 18.5846 10.1644H20.1148V24.4357H10.1682C9.71662 23.8618 9.01651 23.4922 8.23136 23.4922C7.44621 23.4922 6.7461 23.8618 6.29454 24.4357H4.33047V22.2687H16.0124C16.3361 22.2687 16.5985 22.0062 16.5985 21.6826C16.5985 21.359 16.3361 21.0965 16.0124 21.0965H4.33047V15.8781C5.29425 16.3296 6.36885 16.5824 7.5016 16.5824C11.638 16.5824 15.0032 13.2172 15.0032 9.08079C15.0032 4.94442 11.638 1.57919 7.5016 1.57919C3.36517 1.57919 0 4.94442 0 9.08079C0 11.5998 1.24808 13.8328 3.15835 15.1939V25.0217C3.15835 25.3453 3.42073 25.6077 3.74441 25.6077H5.79217C5.77594 25.7217 5.76703 25.8381 5.76703 25.9565C5.76703 27.3154 6.87252 28.4208 8.23136 28.4208C9.5902 28.4208 10.6957 27.3154 10.6957 25.9565C10.6957 25.8381 10.6868 25.7217 10.6706 25.6077H20.7009H23.0095C22.9933 25.7217 22.9844 25.8381 22.9844 25.9565C22.9844 27.3154 24.0899 28.4208 25.4487 28.4208C26.8075 28.4208 27.913 27.3154 27.913 25.9565C27.913 25.8381 27.9041 25.7217 27.8879 25.6077H29.4139C29.7376 25.6077 30 25.3453 30 25.0217V19.8512C30 19.749 29.9732 19.6485 29.9223 19.5598ZM1.17212 9.08079C1.17212 5.59067 4.01154 2.75132 7.5016 2.75132C10.9917 2.75132 13.8311 5.59067 13.8311 9.08079C13.8311 12.5709 10.9917 15.4103 7.5016 15.4103C6.24525 15.4103 5.07331 15.0423 4.08767 14.4085C4.07389 14.3985 4.05959 14.3892 4.04494 14.3804C2.31653 13.2492 1.17212 11.2963 1.17212 9.08079ZM8.23136 27.2487C7.51883 27.2487 6.93915 26.669 6.93915 25.9565C6.93915 25.244 7.51883 24.6643 8.23136 24.6643C8.94389 24.6643 9.52357 25.244 9.52357 25.9565C9.52357 26.669 8.94384 27.2487 8.23136 27.2487ZM28.4024 19.2652H23.9049V14.9169H25.9096L28.4024 19.2652ZM25.4487 27.2487C24.7362 27.2487 24.1565 26.669 24.1565 25.9565C24.1565 25.244 24.7362 24.6643 25.4487 24.6643C26.1612 24.6643 26.7409 25.244 26.7409 25.9565C26.7409 26.669 26.1612 27.2487 25.4487 27.2487ZM27.3855 24.4356C26.934 23.8617 26.2338 23.4922 25.4487 23.4922C24.6524 23.4922 23.9435 23.8722 23.4927 24.46C23.4398 24.4443 23.3839 24.4356 23.3259 24.4356H21.287V14.9169H22.7328V19.8512C22.7328 20.1748 22.9952 20.4373 23.3189 20.4373H28.8279V20.9356H28.4116C28.088 20.9356 27.8256 21.198 27.8256 21.5217C27.8256 21.8453 28.088 22.1077 28.4116 22.1077H28.8279V24.4356H27.3855Z" fill="black"/>
<path d="M16.4982 10.1645C16.6523 10.1645 16.8035 10.1018 16.9125 9.99275C17.0215 9.8838 17.0842 9.7326 17.0842 9.57846C17.0842 9.42427 17.0215 9.27312 16.9125 9.16412C16.8035 9.05511 16.6523 8.9924 16.4982 8.9924C16.344 8.9924 16.1928 9.05505 16.0838 9.16412C15.9748 9.27312 15.9121 9.42374 15.9121 9.57846C15.9121 9.7326 15.9748 9.8838 16.0838 9.99275C16.1929 10.1018 16.3441 10.1645 16.4982 10.1645Z" fill="black"/>
<path d="M18.3566 22.2684C18.5107 22.2684 18.6619 22.2063 18.7709 22.0973C18.8799 21.9877 18.9426 21.8365 18.9426 21.6824C18.9426 21.5282 18.8799 21.377 18.7709 21.2681C18.6619 21.1591 18.5107 21.0963 18.3566 21.0963C18.2024 21.0963 18.0512 21.159 17.9422 21.2681C17.8332 21.377 17.7705 21.5282 17.7705 21.6824C17.7705 21.8365 17.8332 21.9877 17.9422 22.0973C18.0512 22.2063 18.2024 22.2684 18.3566 22.2684Z" fill="black"/>
<path d="M7.49622 14.5795C7.8199 14.5795 8.08228 14.3171 8.08228 13.9934V13.5677C8.08228 13.2441 7.8199 12.9817 7.49622 12.9817C7.17254 12.9817 6.91016 13.2441 6.91016 13.5677V13.9934C6.91016 14.3171 7.17254 14.5795 7.49622 14.5795Z" fill="black"/>
<path d="M7.50696 5.17984C7.83065 5.17984 8.09303 4.91741 8.09303 4.59378V4.16807C8.09303 3.84444 7.83065 3.582 7.50696 3.582C7.18328 3.582 6.9209 3.84444 6.9209 4.16807V4.59378C6.9209 4.91741 7.18328 5.17984 7.50696 5.17984Z" fill="black"/>
<path d="M3.01465 8.48911H2.58899C2.26531 8.48911 2.00293 8.75154 2.00293 9.07517C2.00293 9.39879 2.26531 9.66123 2.58899 9.66123H3.01465C3.33833 9.66123 3.60071 9.39879 3.60071 9.07517C3.60071 8.75154 3.33833 8.48911 3.01465 8.48911Z" fill="black"/>
<path d="M7.50208 9.66682H11.9696C12.2933 9.66682 12.5557 9.40439 12.5557 9.08076C12.5557 8.75714 12.2933 8.4947 11.9696 8.4947H8.08814V7.20401C8.08814 6.88039 7.82576 6.61795 7.50208 6.61795C7.1784 6.61795 6.91602 6.88039 6.91602 7.20401V9.08076C6.91602 9.40444 7.1784 9.66682 7.50208 9.66682Z" fill="black"/>
</g>
<defs>
<clipPath id="clip0_18_628">
<rect width="30" height="30" fill="white"/>
</clipPath>
</defs>
</svg>
