<svg width="13" height="9" viewBox="0 0 13 9" fill="none" xmlns="http://www.w3.org/2000/svg">
<path d="M4.12499 7.90101L4.12618 7.89982L0.919931 4.69357C0.811693 4.58167 0.751738 4.43172 0.752979 4.27604C0.754221 4.12036 0.81656 3.9714 0.926569 3.86123C1.03658 3.75107 1.18546 3.68852 1.34114 3.68705C1.49682 3.68559 1.64684 3.74534 1.7589 3.85342L4.96515 7.06026L11.2631 0.76354C11.3178 0.706831 11.3833 0.661598 11.4558 0.63048C11.5282 0.599362 11.6061 0.582983 11.685 0.582298C11.7638 0.581613 11.842 0.596635 11.915 0.62649C11.9879 0.656344 12.0542 0.700432 12.11 0.756181C12.1657 0.811929 12.2098 0.878223 12.2397 0.951192C12.2695 1.02416 12.2845 1.10235 12.2839 1.18118C12.2832 1.26002 12.2668 1.33793 12.2357 1.41037C12.2046 1.48281 12.1593 1.54833 12.1026 1.6031L5.38434 8.32079C5.27299 8.4321 5.122 8.49463 4.96456 8.49463C4.80711 8.49463 4.65612 8.4321 4.54477 8.32079L4.12499 7.90101Z" fill="white" fill-opacity="0.47"/>
</svg>
