<svg width="21" height="18" viewBox="0 0 21 18" fill="none" xmlns="http://www.w3.org/2000/svg">
<path d="M1 16.1431C0.447715 16.1431 0 16.5909 0 17.1431C0 17.6954 0.447715 18.1431 1 18.1431V16.1431ZM20 18.1431C20.5523 18.1431 21 17.6954 21 17.1431C21 16.5909 20.5523 16.1431 20 16.1431V18.1431ZM1 -0.142578C0.447715 -0.142578 0 0.305137 0 0.857422C0 1.40971 0.447715 1.85742 1 1.85742V-0.142578ZM20 1.85742C20.5523 1.85742 21 1.40971 21 0.857422C21 0.305137 20.5523 -0.142578 20 -0.142578V1.85742ZM1 8.00028C0.447715 8.00028 0 8.44799 0 9.00028C0 9.55256 0.447715 10.0003 1 10.0003V8.00028ZM9.14286 10.0003C9.69514 10.0003 10.1429 9.55256 10.1429 9.00028C10.1429 8.44799 9.69514 8.00028 9.14286 8.00028V10.0003ZM1 18.1431H20V16.1431H1V18.1431ZM1 1.85742H20V-0.142578H1V1.85742ZM1 10.0003H9.14286V8.00028H1V10.0003Z" fill="#FF8562"/>
</svg>
