<svg width="68" height="55" viewBox="0 0 68 55" fill="none" xmlns="http://www.w3.org/2000/svg">
<path fill-rule="evenodd" clip-rule="evenodd" d="M14.0886 28.151C13.1627 35.3604 10.689 41.6985 6.73842 47.2026C6.53958 47.4774 6.5817 47.8542 6.83518 48.0792L13.7767 54.2356C14.0477 54.4751 14.4617 54.4504 14.7045 54.1829C23.8363 44.0198 30.2289 33.7392 30.2289 19.5777V0.704774C30.2289 0.317339 29.9121 0.000488281 29.5246 0.000488281H1.44257C1.05513 0.000488281 0.738281 0.317339 0.738281 0.704774V27.4472C0.738281 27.8347 1.05513 28.1515 1.44257 28.1515H14.0886L14.0886 28.151Z" fill="#C38F32"/>
<path fill-rule="evenodd" clip-rule="evenodd" d="M51.1215 28.151C50.1956 35.3604 47.7219 41.6985 43.7697 47.2026C43.5724 47.4774 43.6149 47.8542 43.8684 48.0792L50.8099 54.2356C51.0794 54.4751 51.4949 54.4504 51.7358 54.1829C60.8695 44.0198 67.2622 33.7392 67.2622 19.5777V0.704774C67.2622 0.317339 66.9453 0.000488281 66.5579 0.000488281H38.4758C38.0869 0.000488281 37.77 0.317339 37.77 0.704774V27.4472C37.77 27.8347 38.0869 28.1515 38.4758 28.1515H51.1219L51.1215 28.151Z" fill="#C38F32"/>
</svg>
